<svg width="2880" height="2048" viewBox="0 0 2880 2048" fill="none" xmlns="http://www.w3.org/2000/svg">
<g clip-path="url(#clip0_2_3)">
<rect width="2880" height="2048" fill="url(#paint0_linear_2_3)"/>
<path d="M265.516 44.9898C326.617 65.896 364.898 123.334 364.258 184.598L337.095 184.224C337.645 134.354 306.53 87.5838 256.838 70.4991L265.516 44.9898Z" fill="#CA22FF"/>
<path d="M102.334 266.339C65.3462 213.402 68.3401 144.441 105.012 95.3613L126.72 111.694C96.8448 151.629 94.3614 207.749 124.394 250.867L102.334 266.339Z" fill="#FFDE2E"/>
<path d="M262.893 318.282C201.261 337.564 136.42 313.891 100.701 264.114L122.825 248.349C151.878 288.886 204.63 308.195 254.803 292.58L262.893 318.282Z" fill="#FF383F"/>
<path d="M184.169 69.2035C235.126 54.2505 288.092 74.6615 316.734 116.111L298.313 128.75C275.018 94.9952 231.926 78.3482 190.445 90.4541L184.169 69.2035Z" fill="#FFDE2E"/>
<path d="M180.184 292.601C131.183 274.946 101.061 228.128 102.375 178.731L124.276 179.387C123.182 219.596 147.665 257.718 187.515 272.143L180.184 292.601Z" fill="#3ABAFF"/>
<path d="M310.119 252.092C278.495 293.477 224.767 308.06 178.072 291.896L185.309 271.215C223.312 284.396 267.046 272.564 292.828 238.927L310.119 252.092Z" fill="#43FF33"/>
<path d="M689.26 491.066C750.361 511.972 788.642 569.41 788.003 630.674L760.839 630.3C761.389 580.43 730.274 533.66 680.582 516.575L689.26 491.066Z" fill="#CA22FF"/>
<path d="M526.078 712.415C489.091 659.478 492.085 590.517 528.757 541.437L550.465 557.77C520.589 597.705 518.106 653.825 548.139 696.943L526.078 712.415Z" fill="#FFDE2E"/>
<path d="M686.637 764.358C625.005 783.64 560.165 759.967 524.445 710.19L546.569 694.425C575.622 734.962 628.374 754.271 678.547 738.656L686.637 764.358Z" fill="#FF383F"/>
<path d="M607.913 515.28C658.87 500.327 711.837 520.738 740.478 562.187L722.057 574.826C698.762 541.071 655.671 524.424 614.189 536.53L607.913 515.28Z" fill="#FFDE2E"/>
<path d="M733.863 698.168C702.239 739.553 648.512 754.137 601.817 737.972L609.053 717.291C647.056 730.472 690.791 718.64 716.573 685.004L733.863 698.168Z" fill="#43FF33"/>
<path d="M603.928 738.677C554.928 721.022 524.805 674.204 526.119 624.808L548.02 625.463C546.926 665.672 571.409 703.794 611.259 718.219L603.928 738.677Z" fill="#3ABAFF"/>
<path d="M689.26 491.066C750.361 511.972 788.642 569.41 788.003 630.674L760.839 630.3C761.389 580.43 730.274 533.66 680.582 516.575L689.26 491.066Z" fill="#CA22FF"/>
<path d="M526.078 712.415C489.091 659.478 492.085 590.517 528.757 541.437L550.465 557.77C520.589 597.705 518.106 653.825 548.139 696.943L526.078 712.415Z" fill="#FFDE2E"/>
<path d="M686.637 764.358C625.005 783.64 560.165 759.967 524.445 710.19L546.569 694.425C575.622 734.962 628.374 754.271 678.547 738.656L686.637 764.358Z" fill="#FF383F"/>
<path d="M607.913 515.28C658.87 500.327 711.837 520.738 740.478 562.187L722.057 574.826C698.762 541.071 655.671 524.424 614.189 536.53L607.913 515.28Z" fill="#FFDE2E"/>
<path d="M733.863 698.168C702.239 739.553 648.512 754.137 601.817 737.972L609.053 717.291C647.056 730.472 690.791 718.64 716.573 685.004L733.863 698.168Z" fill="#43FF33"/>
<path d="M154.006 562.187C132.125 574.267 105.704 570.306 88.3079 554.193L95.4783 546.503C109.632 559.628 131.131 562.87 148.95 553.066L154.006 562.187Z" fill="#3ABAFF"/>
<path d="M91.7326 453.018C118.617 437.604 151.45 441.985 173.34 461.613L164.605 471.29C146.795 455.302 120.078 451.714 98.1838 464.224L91.7326 453.018Z" fill="#CA22FF"/>
<path d="M119.887 581.946C89.0865 578.523 65.1664 555.609 59.0788 526.845L71.8417 524.188C76.7833 547.606 96.2345 566.27 121.292 569.092L119.887 581.946Z" fill="#FFDE2E"/>
<path d="M189.454 540.493C176.893 568.823 147.827 584.71 118.568 581.83L119.887 568.86C143.704 571.219 167.369 558.309 177.624 535.272L189.454 540.493Z" fill="#FF383F"/>
<path d="M74.7085 490.019C85.4502 466.909 109.581 454.271 133.596 457.066L132.321 467.711C112.774 465.424 93.127 475.692 84.3589 494.484L74.7085 490.019Z" fill="#FFDE2E"/>
<path d="M180.538 502.506C185.449 527.013 173.697 551.005 153.083 562.725L147.916 553.568C164.702 544.037 174.282 524.52 170.316 504.573L180.538 502.506Z" fill="#43FF33"/>
<path d="M584.665 779.29C626.874 793.732 653.32 833.412 652.878 875.734L634.113 875.475C634.493 841.025 612.998 808.715 578.67 796.912L584.665 779.29Z" fill="#CA22FF"/>
<path d="M471.936 932.202C446.385 895.632 448.453 847.993 473.787 814.088L488.783 825.371C468.145 852.958 466.429 891.727 487.176 921.514L471.936 932.202Z" fill="#FFDE2E"/>
<path d="M582.853 968.085C540.276 981.405 495.484 965.052 470.808 930.665L486.092 919.774C506.162 947.778 542.604 961.117 577.264 950.33L582.853 968.085Z" fill="#FF383F"/>
<path d="M528.469 796.017C563.671 785.687 600.261 799.788 620.047 828.422L607.322 837.153C591.229 813.835 561.461 802.335 532.805 810.698L528.469 796.017Z" fill="#FFDE2E"/>
<path d="M615.478 922.36C593.631 950.949 556.516 961.023 524.258 949.857L529.257 935.57C555.51 944.676 585.723 936.502 603.533 913.265L615.478 922.36Z" fill="#43FF33"/>
<path d="M1226.19 797.028C1268.4 811.471 1294.85 851.15 1294.41 893.472L1275.64 893.214C1276.02 858.763 1254.53 826.453 1220.2 814.65L1226.19 797.028Z" fill="#CA22FF"/>
<path d="M1113.47 949.94C1087.91 913.37 1089.98 865.731 1115.32 831.826L1130.31 843.109C1109.67 870.696 1107.96 909.465 1128.71 939.252L1113.47 949.94Z" fill="#FFDE2E"/>
<path d="M1224.38 985.823C1181.81 999.143 1137.01 982.79 1112.34 948.403L1127.62 937.512C1147.69 965.516 1184.13 978.855 1218.79 968.068L1224.38 985.823Z" fill="#FF383F"/>
<path d="M1170 813.755C1205.2 803.426 1241.79 817.526 1261.58 846.16L1248.85 854.891C1232.76 831.573 1202.99 820.073 1174.33 828.436L1170 813.755Z" fill="#FFDE2E"/>
<path d="M1257.01 940.098C1235.16 968.687 1198.04 978.762 1165.79 967.595L1170.79 953.308C1197.04 962.414 1227.25 954.24 1245.06 931.003L1257.01 940.098Z" fill="#43FF33"/>
<path d="M1144.52 207.613C1143.81 272.188 1101.26 326.539 1042.89 345.128L1034.73 319.215C1082.26 304.112 1116.92 259.908 1117.58 207.365L1144.52 207.613Z" fill="#3ABAFF"/>
<path d="M883.189 122.007C921.87 70.2953 988.296 51.5299 1046.4 70.9763L1037.69 96.7092C990.402 80.8512 936.33 96.0778 904.794 138.109L883.189 122.007Z" fill="#FFDE2E"/>
<path d="M884.171 290.757C846.549 238.27 848.712 169.277 884.79 119.759L906.693 135.83C877.301 176.121 875.494 232.267 906.044 275.021L884.171 290.757Z" fill="#43FF33"/>
<path d="M1096.04 137.95C1126.21 181.655 1123.42 238.35 1093.03 278.538L1075.26 265.004C1100.01 232.306 1102.32 186.168 1077.83 150.569L1096.04 137.95Z" fill="#CA22FF"/>
<path d="M882.642 204.166C884.055 152.101 919.077 108.825 966.397 94.5952L972.637 115.598C934.11 127.159 905.579 162.354 904.367 204.717L882.642 204.166Z" fill="#3ABAFF"/>
<path d="M961.826 314.864C912.616 297.801 881.932 251.348 882.651 201.94L904.558 202.332C903.949 242.551 928.889 280.376 968.91 294.319L961.826 314.864Z" fill="#FF383F"/>
<path d="M1407.64 639.241C1406.93 703.816 1364.38 758.167 1306 776.756L1297.84 750.843C1345.38 735.74 1380.04 691.536 1380.69 638.993L1407.64 639.241Z" fill="#3ABAFF"/>
<path d="M1146.3 553.635C1184.99 501.923 1251.41 483.158 1309.51 502.604L1300.8 528.337C1253.52 512.479 1199.45 527.706 1167.91 569.737L1146.3 553.635Z" fill="#FFDE2E"/>
<path d="M1147.29 722.385C1109.66 669.898 1111.83 600.905 1147.91 551.387L1169.81 567.457C1140.42 607.749 1138.61 663.895 1169.16 706.649L1147.29 722.385Z" fill="#43FF33"/>
<path d="M1359.15 569.578C1389.32 613.283 1386.54 669.978 1356.15 710.165L1338.37 696.632C1363.13 663.934 1365.43 617.796 1340.94 582.197L1359.15 569.578Z" fill="#CA22FF"/>
<path d="M1145.76 635.794C1147.17 583.729 1182.19 540.453 1229.51 526.223L1235.75 547.226C1197.23 558.787 1168.69 593.982 1167.48 636.345L1145.76 635.794Z" fill="#3ABAFF"/>
<path d="M1224.94 746.492C1175.73 729.428 1145.05 682.976 1145.77 633.568L1167.67 633.96C1167.06 674.179 1192 712.003 1232.03 725.947L1224.94 746.492Z" fill="#FF383F"/>
<path d="M758.296 275.296C757.347 339.867 714.593 394.059 656.145 412.43L648.086 386.486C695.673 371.56 730.503 327.487 731.354 274.947L758.296 275.296Z" fill="#FFDE2E"/>
<path d="M659.696 138.608C720.797 159.514 759.079 216.952 758.439 278.216L731.275 277.842C731.826 227.972 700.71 181.202 651.018 164.117L659.696 138.608Z" fill="#FF383F"/>
<path d="M499.163 189.207C538.337 137.867 604.939 119.738 662.85 139.74L653.896 165.388C606.765 149.078 552.55 163.787 520.613 205.515L499.163 189.207Z" fill="#3ABAFF"/>
<path d="M496.515 359.957C459.527 307.02 462.521 238.059 499.193 188.979L520.902 205.312C491.026 245.246 488.543 301.367 518.575 344.485L496.515 359.957Z" fill="#43FF33"/>
<path d="M657.074 411.9C595.441 431.181 530.601 407.509 494.881 357.732L517.006 341.967C546.058 382.504 598.81 401.813 648.984 386.198L657.074 411.9Z" fill="#CA22FF"/>
<path d="M588.159 391.23C536.852 378.828 501.359 334.971 497.254 285.061L519.39 283.314C522.708 323.944 551.563 359.66 593.297 369.814L588.159 391.23Z" fill="#FF383F"/>
<path d="M714.913 337.274C687.227 382.215 634.532 402.376 585.805 390.817L591.002 369.229C630.661 378.661 673.559 362.29 696.141 325.755L714.913 337.274Z" fill="#3ABAFF"/>
<path d="M703.525 200.165C737.39 240.655 739.832 297.023 713.442 339.584L694.609 327.82C716.112 293.187 714.163 247.312 686.656 214.325L703.525 200.165Z" fill="#43FF33"/>
<path d="M567.875 167.261C616.748 147.32 671.186 162.143 703.701 200.231L686.765 214.592C660.316 183.572 616.023 171.471 576.231 187.639L567.875 167.261Z" fill="#CA22FF"/>
<path d="M497.508 285.897C493.251 233.284 523.817 185.86 569.943 166.36L578.522 186.842C540.964 202.693 516.057 241.266 519.458 284.082L497.508 285.897Z" fill="#FFDE2E"/>
<path d="M1040.14 818.28C1039.19 882.851 996.432 937.043 937.984 955.413L929.925 929.47C977.512 914.544 1012.34 870.471 1013.19 817.931L1040.14 818.28Z" fill="#FFDE2E"/>
<path d="M941.536 681.592C1002.64 702.498 1040.92 759.936 1040.28 821.2L1013.11 820.826C1013.66 770.956 982.55 724.186 932.858 707.101L941.536 681.592Z" fill="#FF383F"/>
<path d="M781.002 732.191C820.176 680.851 886.779 662.722 944.689 682.723L935.735 708.372C888.604 692.062 834.389 706.771 802.452 748.499L781.002 732.191Z" fill="#3ABAFF"/>
<path d="M778.354 902.941C741.366 850.004 744.36 781.043 781.032 731.963L802.74 748.296C772.865 788.23 770.381 844.351 800.414 887.469L778.354 902.941Z" fill="#43FF33"/>
<path d="M938.913 954.884C877.28 974.165 812.44 950.493 776.721 900.716L798.845 884.951C827.897 925.488 880.65 944.797 930.823 929.182L938.913 954.884Z" fill="#CA22FF"/>
<path d="M869.999 934.214C818.691 921.812 783.198 877.955 779.093 828.045L801.229 826.298C804.547 866.928 833.402 902.644 875.136 912.797L869.999 934.214Z" fill="#FF383F"/>
<path d="M996.753 880.258C969.067 925.199 916.371 945.36 867.645 933.801L872.841 912.213C912.5 921.645 955.399 905.274 977.981 868.738L996.753 880.258Z" fill="#3ABAFF"/>
<path d="M985.364 743.149C1019.23 783.639 1021.67 840.006 995.282 882.568L976.449 870.804C997.951 836.171 996.002 790.296 968.495 757.309L985.364 743.149Z" fill="#43FF33"/>
<path d="M849.714 710.245C898.587 690.304 953.026 705.127 985.54 743.215L968.604 757.576C942.155 726.556 897.862 714.455 858.07 730.622L849.714 710.245Z" fill="#CA22FF"/>
<path d="M779.347 828.881C775.091 776.268 805.657 728.844 851.783 709.344L860.361 729.825C822.804 745.676 797.896 784.25 801.297 827.066L779.347 828.881Z" fill="#FFDE2E"/>
<path d="M270.385 933.156C206.081 939.1 147.638 902.371 123.137 846.216L148.073 835.435C167.989 881.159 215.527 911.089 267.858 906.33L270.385 933.156Z" fill="#FF383F"/>
<path d="M395.775 820.538C381.506 883.521 328.479 927.711 267.497 933.61L264.971 906.561C314.615 901.789 357.799 865.862 369.485 814.631L395.775 820.538Z" fill="#CA22FF"/>
<path d="M328.34 666.318C383.565 699.792 408.696 764.081 394.986 823.794L368.529 817.628C379.718 769.026 359.31 716.689 314.413 689.385L328.34 666.318Z" fill="#43FF33"/>
<path d="M158.282 681.9C206.971 639.476 275.858 635.097 328.57 666.324L314.646 689.651C271.752 664.205 215.687 667.723 176.019 702.184L158.282 681.9Z" fill="#3ABAFF"/>
<path d="M123.762 847.083C98.0164 787.859 114.637 720.864 160.32 680.038L178.355 700.355C141.148 733.565 127.577 788.077 148.455 836.298L123.762 847.083Z" fill="#FFDE2E"/>
<path d="M136.963 776.357C143.821 724.02 183.642 684.051 232.829 674.645L236.927 696.469C196.883 704.101 164.449 736.602 158.805 779.181L136.963 776.357Z" fill="#FF383F"/>
<path d="M204.133 896.632C156.494 873.898 130.828 823.654 137.122 773.973L159.142 776.837C153.994 817.276 174.848 858.183 213.584 876.739L204.133 896.632Z" fill="#CA22FF"/>
<path d="M339.244 870.683C302.598 908.674 246.812 917.115 201.679 895.416L211.367 875.436C248.096 893.121 293.501 886.29 323.366 855.421L339.244 870.683Z" fill="#43FF33"/>
<path d="M357.49 732.297C382.531 778.764 373.599 834.473 339.198 870.865L323.112 855.558C351.133 825.95 358.44 780.619 338.12 742.779L357.49 732.297Z" fill="#3ABAFF"/>
<path d="M232.025 674.987C283.884 665.142 334.298 690.475 358.607 734.258L339.157 744.972C319.39 709.32 278.38 688.669 236.171 696.618L232.025 674.987Z" fill="#FFDE2E"/>
<path d="M213.585 450.001C220.443 397.663 260.265 357.694 309.452 348.289L313.55 370.112C273.506 377.745 241.071 410.246 235.428 452.824L213.585 450.001Z" fill="#FF383F"/>
<path d="M280.755 570.276C233.117 547.542 207.45 497.297 213.745 447.616L235.764 450.48C230.616 490.919 251.471 531.827 290.206 550.382L280.755 570.276Z" fill="#CA22FF"/>
<path d="M415.867 544.327C379.221 582.318 323.435 590.759 278.302 569.06L287.99 549.08C324.719 566.765 370.124 559.933 399.988 529.064L415.867 544.327Z" fill="#43FF33"/>
<path d="M434.113 405.94C459.154 452.408 450.222 508.117 415.82 544.509L399.735 529.201C427.756 499.594 435.063 454.263 414.743 416.423L434.113 405.94Z" fill="#3ABAFF"/>
<path d="M308.648 348.631C360.507 338.786 410.92 364.118 435.229 407.901L415.78 418.615C396.013 382.964 355.003 362.313 312.794 370.261L308.648 348.631Z" fill="#FFDE2E"/>
<path d="M863.983 504.201C870.842 451.863 910.663 411.894 959.85 402.488L963.948 424.312C923.904 431.945 891.469 464.446 885.826 507.024L863.983 504.201Z" fill="#FF383F"/>
<path d="M931.153 624.476C883.515 601.742 857.848 551.497 864.143 501.816L886.162 504.68C881.014 545.119 901.869 586.026 940.604 604.582L931.153 624.476Z" fill="#CA22FF"/>
<path d="M1066.26 598.527C1029.62 636.518 973.833 644.959 928.7 623.26L938.388 603.279C975.117 620.965 1020.52 614.133 1050.39 583.264L1066.26 598.527Z" fill="#43FF33"/>
<path d="M1084.51 460.14C1109.55 506.608 1100.62 562.317 1066.22 598.709L1050.13 583.401C1078.15 553.794 1085.46 508.463 1065.14 470.622L1084.51 460.14Z" fill="#3ABAFF"/>
<path d="M959.046 402.831C1010.9 392.986 1061.32 418.318 1085.63 462.101L1066.18 472.815C1046.41 437.163 1005.4 416.513 963.192 424.461L959.046 402.831Z" fill="#FFDE2E"/>
<path d="M1171.44 266.707C1178.3 214.369 1218.12 174.4 1267.31 164.995L1271.41 186.818C1231.36 194.451 1198.93 226.952 1193.29 269.53L1171.44 266.707Z" fill="#FF383F"/>
<path d="M1238.61 386.982C1190.98 364.248 1165.31 314.003 1171.6 264.322L1193.62 267.186C1188.48 307.625 1209.33 348.532 1248.07 367.088L1238.61 386.982Z" fill="#CA22FF"/>
<path d="M1373.73 361.033C1337.08 399.024 1281.29 407.465 1236.16 385.766L1245.85 365.786C1282.58 383.471 1327.98 376.639 1357.85 345.77L1373.73 361.033Z" fill="#43FF33"/>
<path d="M1391.97 222.646C1417.01 269.114 1408.08 324.823 1373.68 361.215L1357.59 345.907C1385.62 316.3 1392.92 270.969 1372.6 233.129L1391.97 222.646Z" fill="#3ABAFF"/>
<path d="M1266.51 165.337C1318.37 155.492 1368.78 180.824 1393.09 224.607L1373.64 235.321C1353.87 199.67 1312.86 179.019 1270.65 186.967L1266.51 165.337Z" fill="#FFDE2E"/>
<path d="M1699.35 981.01C1760.45 960.104 1798.73 902.666 1798.09 841.402L1770.92 841.776C1771.47 891.646 1740.36 938.416 1690.67 955.501L1699.35 981.01Z" fill="#CA22FF"/>
<path d="M1536.16 759.661C1499.18 812.598 1502.17 881.559 1538.84 930.639L1560.55 914.306C1530.67 874.371 1528.19 818.251 1558.22 775.133L1536.16 759.661Z" fill="#FFDE2E"/>
<path d="M1696.72 707.718C1635.09 688.436 1570.25 712.109 1534.53 761.886L1556.66 777.651C1585.71 737.114 1638.46 717.805 1688.63 733.42L1696.72 707.718Z" fill="#FF383F"/>
<path d="M1618 956.797C1668.96 971.749 1721.92 951.338 1750.56 909.889L1732.14 897.25C1708.85 931.005 1665.76 947.652 1624.27 935.546L1618 956.797Z" fill="#FFDE2E"/>
<path d="M1614.01 733.399C1565.01 751.054 1534.89 797.872 1536.2 847.269L1558.11 846.613C1557.01 806.404 1581.49 768.282 1621.34 753.857L1614.01 733.399Z" fill="#3ABAFF"/>
<path d="M1743.95 773.908C1712.32 732.523 1658.6 717.94 1611.9 734.104L1619.14 754.785C1657.14 741.604 1700.88 753.436 1726.66 787.073L1743.95 773.908Z" fill="#43FF33"/>
<path d="M2123.09 534.934C2184.19 514.028 2222.47 456.59 2221.83 395.326L2194.67 395.7C2195.22 445.57 2164.1 492.34 2114.41 509.425L2123.09 534.934Z" fill="#CA22FF"/>
<path d="M1959.91 313.585C1922.92 366.522 1925.91 435.483 1962.59 484.563L1984.29 468.23C1954.42 428.295 1951.94 372.175 1981.97 329.057L1959.91 313.585Z" fill="#FFDE2E"/>
<path d="M2120.47 261.642C2058.83 242.36 1993.99 266.033 1958.27 315.81L1980.4 331.575C2009.45 291.038 2062.2 271.729 2112.38 287.344L2120.47 261.642Z" fill="#FF383F"/>
<path d="M2041.74 510.72C2092.7 525.673 2145.67 505.262 2174.31 463.813L2155.89 451.174C2132.59 484.929 2089.5 501.576 2048.02 489.47L2041.74 510.72Z" fill="#FFDE2E"/>
<path d="M2167.69 327.832C2136.07 286.447 2082.34 271.863 2035.65 288.028L2042.88 308.709C2080.89 295.528 2124.62 307.36 2150.4 340.996L2167.69 327.832Z" fill="#43FF33"/>
<path d="M2037.76 287.323C1988.76 304.978 1958.63 351.796 1959.95 401.192L1981.85 400.537C1980.76 360.328 2005.24 322.206 2045.09 307.781L2037.76 287.323Z" fill="#3ABAFF"/>
<path d="M2123.09 534.934C2184.19 514.028 2222.47 456.59 2221.83 395.326L2194.67 395.7C2195.22 445.57 2164.1 492.34 2114.41 509.425L2123.09 534.934Z" fill="#CA22FF"/>
<path d="M1959.91 313.585C1922.92 366.522 1925.91 435.483 1962.59 484.563L1984.29 468.23C1954.42 428.295 1951.94 372.175 1981.97 329.057L1959.91 313.585Z" fill="#FFDE2E"/>
<path d="M2120.47 261.642C2058.83 242.36 1993.99 266.033 1958.27 315.81L1980.4 331.575C2009.45 291.038 2062.2 271.729 2112.38 287.344L2120.47 261.642Z" fill="#FF383F"/>
<path d="M2041.74 510.72C2092.7 525.673 2145.67 505.262 2174.31 463.813L2155.89 451.174C2132.59 484.929 2089.5 501.576 2048.02 489.47L2041.74 510.72Z" fill="#FFDE2E"/>
<path d="M2167.69 327.832C2136.07 286.447 2082.34 271.863 2035.65 288.028L2042.88 308.709C2080.89 295.528 2124.62 307.36 2150.4 340.996L2167.69 327.832Z" fill="#43FF33"/>
<path d="M1587.84 463.813C1565.95 451.733 1539.53 455.694 1522.14 471.807L1529.31 479.497C1543.46 466.372 1564.96 463.13 1582.78 472.934L1587.84 463.813Z" fill="#3ABAFF"/>
<path d="M1525.56 572.982C1552.45 588.396 1585.28 584.015 1607.17 564.387L1598.43 554.71C1580.63 570.698 1553.91 574.286 1532.01 561.776L1525.56 572.982Z" fill="#CA22FF"/>
<path d="M1553.72 444.054C1522.92 447.477 1499 470.391 1492.91 499.155L1505.67 501.812C1510.61 478.394 1530.06 459.73 1555.12 456.908L1553.72 444.054Z" fill="#FFDE2E"/>
<path d="M1623.28 485.507C1610.72 457.177 1581.66 441.29 1552.4 444.17L1553.72 457.14C1577.53 454.781 1601.2 467.691 1611.45 490.728L1623.28 485.507Z" fill="#FF383F"/>
<path d="M1508.54 535.981C1519.28 559.091 1543.41 571.729 1567.43 568.934L1566.15 558.289C1546.6 560.576 1526.96 550.308 1518.19 531.516L1508.54 535.981Z" fill="#FFDE2E"/>
<path d="M1614.37 523.494C1619.28 498.987 1607.53 474.995 1586.91 463.275L1581.75 472.432C1598.53 481.963 1608.11 501.48 1604.15 521.427L1614.37 523.494Z" fill="#43FF33"/>
<path d="M2018.5 246.71C2060.7 232.268 2087.15 192.588 2086.71 150.266L2067.94 150.525C2068.32 184.975 2046.83 217.285 2012.5 229.088L2018.5 246.71Z" fill="#CA22FF"/>
<path d="M1905.77 93.7983C1880.21 130.368 1882.28 178.007 1907.62 211.912L1922.61 200.629C1901.97 173.042 1900.26 134.273 1921.01 104.486L1905.77 93.7983Z" fill="#FFDE2E"/>
<path d="M2016.68 57.915C1974.11 44.5952 1929.31 60.9484 1904.64 95.3354L1919.92 106.226C1939.99 78.2223 1976.43 64.8832 2011.09 75.6703L2016.68 57.915Z" fill="#FF383F"/>
<path d="M1962.3 229.983C1997.5 240.313 2034.09 226.212 2053.88 197.578L2041.15 188.847C2025.06 212.165 1995.29 223.665 1966.63 215.302L1962.3 229.983Z" fill="#FFDE2E"/>
<path d="M2049.31 103.64C2027.46 75.0511 1990.35 64.9765 1958.09 76.1433L1963.09 90.4301C1989.34 81.3244 2019.55 89.4982 2037.36 112.735L2049.31 103.64Z" fill="#43FF33"/>
<path d="M2660.02 228.972C2702.23 214.529 2728.68 174.85 2728.24 132.528L2709.47 132.786C2709.85 167.237 2688.36 199.547 2654.03 211.35L2660.02 228.972Z" fill="#CA22FF"/>
<path d="M2547.3 76.0603C2521.74 112.63 2523.81 160.269 2549.15 194.174L2564.14 182.891C2543.5 155.304 2541.79 116.535 2562.53 86.7484L2547.3 76.0603Z" fill="#FFDE2E"/>
<path d="M2658.21 40.1769C2615.64 26.8571 2570.84 43.2103 2546.17 77.5973L2561.45 88.488C2581.52 60.4842 2617.96 47.1451 2652.62 57.9322L2658.21 40.1769Z" fill="#FF383F"/>
<path d="M2603.83 212.245C2639.03 222.574 2675.62 208.474 2695.41 179.84L2682.68 171.109C2666.59 194.427 2636.82 205.927 2608.16 197.564L2603.83 212.245Z" fill="#FFDE2E"/>
<path d="M2690.84 85.9022C2668.99 57.313 2631.87 47.2384 2599.62 58.4051L2604.62 72.6919C2630.87 63.5863 2661.08 71.76 2678.89 94.9966L2690.84 85.9022Z" fill="#43FF33"/>
<path d="M2578.35 818.387C2577.64 753.812 2535.09 699.461 2476.71 680.872L2468.56 706.785C2516.09 721.888 2550.75 766.092 2551.41 818.635L2578.35 818.387Z" fill="#3ABAFF"/>
<path d="M2317.02 903.993C2355.7 955.705 2422.13 974.47 2480.23 955.024L2471.52 929.291C2424.23 945.149 2370.16 929.922 2338.62 887.891L2317.02 903.993Z" fill="#FFDE2E"/>
<path d="M2318 735.243C2280.38 787.73 2282.54 856.723 2318.62 906.241L2340.52 890.17C2311.13 849.879 2309.32 793.733 2339.87 750.979L2318 735.243Z" fill="#43FF33"/>
<path d="M2529.87 888.05C2560.04 844.345 2557.25 787.65 2526.86 747.462L2509.09 760.996C2533.84 793.694 2536.15 839.832 2511.65 875.431L2529.87 888.05Z" fill="#CA22FF"/>
<path d="M2316.47 821.834C2317.88 873.899 2352.91 917.175 2400.23 931.405L2406.47 910.402C2367.94 898.841 2339.41 863.646 2338.2 821.283L2316.47 821.834Z" fill="#3ABAFF"/>
<path d="M2395.66 711.136C2346.45 728.199 2315.76 774.652 2316.48 824.06L2338.39 823.668C2337.78 783.449 2362.72 745.624 2402.74 731.681L2395.66 711.136Z" fill="#FF383F"/>
<path d="M2841.47 386.759C2840.76 322.184 2798.21 267.833 2739.83 249.244L2731.67 275.157C2779.2 290.26 2813.87 334.464 2814.52 387.007L2841.47 386.759Z" fill="#3ABAFF"/>
<path d="M2580.13 472.365C2618.82 524.077 2685.24 542.842 2743.34 523.396L2734.63 497.663C2687.35 513.521 2633.28 498.294 2601.74 456.263L2580.13 472.365Z" fill="#FFDE2E"/>
<path d="M2581.12 303.615C2543.49 356.102 2545.66 425.095 2581.74 474.613L2603.64 458.543C2574.25 418.251 2572.44 362.105 2602.99 319.351L2581.12 303.615Z" fill="#43FF33"/>
<path d="M2792.98 456.422C2823.15 412.717 2820.36 356.022 2789.98 315.835L2772.2 329.368C2796.96 362.066 2799.26 408.204 2774.77 443.803L2792.98 456.422Z" fill="#CA22FF"/>
<path d="M2579.59 390.206C2581 442.271 2616.02 485.547 2663.34 499.777L2669.58 478.774C2631.06 467.213 2602.52 432.018 2601.31 389.655L2579.59 390.206Z" fill="#3ABAFF"/>
<path d="M2658.77 279.508C2609.56 296.572 2578.88 343.024 2579.6 392.432L2601.5 392.04C2600.89 351.821 2625.83 313.997 2665.86 300.053L2658.77 279.508Z" fill="#FF383F"/>
<path d="M2192.13 750.704C2191.18 686.133 2148.42 631.941 2089.97 613.57L2081.92 639.514C2129.5 654.44 2164.33 698.513 2165.18 751.053L2192.13 750.704Z" fill="#FFDE2E"/>
<path d="M2093.53 887.392C2154.63 866.486 2192.91 809.048 2192.27 747.784L2165.11 748.158C2165.66 798.028 2134.54 844.798 2084.85 861.883L2093.53 887.392Z" fill="#FF383F"/>
<path d="M1932.99 836.793C1972.17 888.133 2038.77 906.262 2096.68 886.26L2087.73 860.612C2040.59 876.922 1986.38 862.213 1954.44 820.485L1932.99 836.793Z" fill="#3ABAFF"/>
<path d="M1930.34 666.043C1893.36 718.98 1896.35 787.941 1933.02 837.021L1954.73 820.688C1924.86 780.754 1922.37 724.633 1952.41 681.515L1930.34 666.043Z" fill="#43FF33"/>
<path d="M2090.9 614.1C2029.27 594.819 1964.43 618.491 1928.71 668.268L1950.84 684.033C1979.89 643.496 2032.64 624.187 2082.81 639.802L2090.9 614.1Z" fill="#CA22FF"/>
<path d="M2021.99 634.77C1970.68 647.172 1935.19 691.029 1931.08 740.939L1953.22 742.686C1956.54 702.056 1985.39 666.34 2027.13 656.186L2021.99 634.77Z" fill="#FF383F"/>
<path d="M2148.74 688.726C2121.06 643.785 2068.36 623.624 2019.64 635.183L2024.83 656.771C2064.49 647.339 2107.39 663.71 2129.97 700.245L2148.74 688.726Z" fill="#3ABAFF"/>
<path d="M2137.35 825.835C2171.22 785.345 2173.66 728.978 2147.27 686.416L2128.44 698.18C2149.94 732.813 2147.99 778.688 2120.49 811.675L2137.35 825.835Z" fill="#43FF33"/>
<path d="M2001.7 858.739C2050.58 878.68 2105.02 863.857 2137.53 825.769L2120.59 811.408C2094.15 842.428 2049.85 854.529 2010.06 838.361L2001.7 858.739Z" fill="#CA22FF"/>
<path d="M1931.34 740.103C1927.08 792.716 1957.65 840.14 2003.77 859.64L2012.35 839.158C1974.79 823.307 1949.89 784.734 1953.29 741.918L1931.34 740.103Z" fill="#FFDE2E"/>
<path d="M2473.96 207.72C2473.02 143.149 2430.26 88.9572 2371.81 70.5866L2363.75 96.5299C2411.34 111.456 2446.17 155.529 2447.02 208.069L2473.96 207.72Z" fill="#FFDE2E"/>
<path d="M2375.37 344.408C2436.47 323.502 2474.75 266.064 2474.11 204.8L2446.94 205.174C2447.49 255.044 2416.38 301.814 2366.69 318.899L2375.37 344.408Z" fill="#FF383F"/>
<path d="M2214.83 293.809C2254.01 345.149 2320.61 363.278 2378.52 343.277L2369.56 317.628C2322.43 333.938 2268.22 319.229 2236.28 277.501L2214.83 293.809Z" fill="#3ABAFF"/>
<path d="M2212.18 123.059C2175.2 175.996 2178.19 244.957 2214.86 294.037L2236.57 277.704C2206.69 237.77 2204.21 181.649 2234.24 138.531L2212.18 123.059Z" fill="#43FF33"/>
<path d="M2372.74 71.1159C2311.11 51.8346 2246.27 75.507 2210.55 125.284L2232.67 141.049C2261.73 100.512 2314.48 81.2028 2364.65 96.8178L2372.74 71.1159Z" fill="#CA22FF"/>
<path d="M2303.83 91.7857C2252.52 104.188 2217.03 148.045 2212.92 197.955L2235.06 199.702C2238.38 159.072 2267.23 123.356 2308.97 113.203L2303.83 91.7857Z" fill="#FF383F"/>
<path d="M2430.58 145.742C2402.9 100.801 2350.2 80.6403 2301.47 92.1987L2306.67 113.787C2346.33 104.355 2389.23 120.726 2411.81 157.262L2430.58 145.742Z" fill="#3ABAFF"/>
<path d="M2419.19 282.851C2453.06 242.361 2455.5 185.994 2429.11 143.432L2410.28 155.196C2431.78 189.829 2429.83 235.704 2402.32 268.691L2419.19 282.851Z" fill="#43FF33"/>
<path d="M2283.54 315.755C2332.42 335.696 2386.86 320.873 2419.37 282.785L2402.43 268.424C2375.98 299.444 2331.69 311.545 2291.9 295.377L2283.54 315.755Z" fill="#CA22FF"/>
<path d="M2213.18 197.119C2208.92 249.732 2239.49 297.156 2285.61 316.656L2294.19 296.175C2256.63 280.324 2231.73 241.75 2235.13 198.934L2213.18 197.119Z" fill="#FFDE2E"/>
<path d="M1704.21 92.8437C1639.91 86.8998 1581.47 123.629 1556.97 179.784L1581.9 190.565C1601.82 144.841 1649.36 114.911 1701.69 119.67L1704.21 92.8437Z" fill="#FF383F"/>
<path d="M1829.6 205.462C1815.34 142.479 1762.31 98.2893 1701.33 92.3901L1698.8 119.439C1748.44 124.211 1791.63 160.138 1803.32 211.369L1829.6 205.462Z" fill="#CA22FF"/>
<path d="M1762.17 359.682C1817.4 326.208 1842.53 261.919 1828.82 202.206L1802.36 208.372C1813.55 256.974 1793.14 309.311 1748.24 336.615L1762.17 359.682Z" fill="#43FF33"/>
<path d="M1592.11 344.1C1640.8 386.524 1709.69 390.903 1762.4 359.676L1748.48 336.349C1705.58 361.795 1649.52 358.277 1609.85 323.816L1592.11 344.1Z" fill="#3ABAFF"/>
<path d="M1557.59 178.917C1531.85 238.141 1548.47 305.136 1594.15 345.962L1612.18 325.645C1574.98 292.435 1561.41 237.923 1582.28 189.702L1557.59 178.917Z" fill="#FFDE2E"/>
<path d="M1570.79 249.643C1577.65 301.98 1617.47 341.949 1666.66 351.355L1670.76 329.531C1630.71 321.899 1598.28 289.398 1592.64 246.819L1570.79 249.643Z" fill="#FF383F"/>
<path d="M1637.96 129.368C1590.32 152.102 1564.66 202.346 1570.95 252.027L1592.97 249.163C1587.82 208.724 1608.68 167.817 1647.41 149.261L1637.96 129.368Z" fill="#CA22FF"/>
<path d="M1773.07 155.317C1736.43 117.326 1680.64 108.885 1635.51 130.584L1645.2 150.564C1681.93 132.879 1727.33 139.71 1757.2 170.579L1773.07 155.317Z" fill="#43FF33"/>
<path d="M1791.32 293.703C1816.36 247.236 1807.43 191.527 1773.03 155.135L1756.94 170.442C1784.96 200.05 1792.27 245.381 1771.95 283.221L1791.32 293.703Z" fill="#3ABAFF"/>
<path d="M1665.85 351.013C1717.71 360.858 1768.13 335.525 1792.44 291.742L1772.99 281.028C1753.22 316.68 1712.21 337.331 1670 329.382L1665.85 351.013Z" fill="#FFDE2E"/>
<path d="M1647.42 575.999C1654.27 628.337 1694.09 668.306 1743.28 677.711L1747.38 655.888C1707.34 648.255 1674.9 615.754 1669.26 573.176L1647.42 575.999Z" fill="#FF383F"/>
<path d="M1714.58 455.724C1666.95 478.458 1641.28 528.703 1647.57 578.384L1669.59 575.52C1664.45 535.081 1685.3 494.173 1724.04 475.618L1714.58 455.724Z" fill="#CA22FF"/>
<path d="M1849.7 481.673C1813.05 443.682 1757.26 435.241 1712.13 456.94L1721.82 476.92C1758.55 459.235 1803.95 466.067 1833.82 496.936L1849.7 481.673Z" fill="#43FF33"/>
<path d="M1867.94 620.06C1892.98 573.592 1884.05 517.883 1849.65 481.491L1833.56 496.799C1861.59 526.406 1868.89 571.737 1848.57 609.577L1867.94 620.06Z" fill="#3ABAFF"/>
<path d="M1742.48 677.369C1794.34 687.214 1844.75 661.882 1869.06 618.099L1849.61 607.385C1829.84 643.036 1788.83 663.687 1746.62 655.739L1742.48 677.369Z" fill="#FFDE2E"/>
<path d="M2297.81 521.799C2304.67 574.137 2344.49 614.106 2393.68 623.512L2397.78 601.688C2357.73 594.055 2325.3 561.554 2319.66 518.976L2297.81 521.799Z" fill="#FF383F"/>
<path d="M2364.98 401.524C2317.35 424.258 2291.68 474.503 2297.97 524.184L2319.99 521.32C2314.84 480.881 2335.7 439.974 2374.43 421.418L2364.98 401.524Z" fill="#CA22FF"/>
<path d="M2500.09 427.473C2463.45 389.482 2407.66 381.041 2362.53 402.74L2372.22 422.721C2408.95 405.036 2454.35 411.867 2484.22 442.736L2500.09 427.473Z" fill="#43FF33"/>
<path d="M2518.34 565.86C2543.38 519.392 2534.45 463.683 2500.05 427.291L2483.96 442.599C2511.98 472.206 2519.29 517.537 2498.97 555.378L2518.34 565.86Z" fill="#3ABAFF"/>
<path d="M2392.88 623.169C2444.73 633.014 2495.15 607.682 2519.46 563.899L2500.01 553.185C2480.24 588.837 2439.23 609.487 2397.02 601.539L2392.88 623.169Z" fill="#FFDE2E"/>
<path d="M2605.27 759.293C2612.13 811.631 2651.95 851.6 2701.14 861.005L2705.24 839.182C2665.2 831.549 2632.76 799.048 2627.12 756.47L2605.27 759.293Z" fill="#FF383F"/>
<path d="M2672.44 639.018C2624.81 661.752 2599.14 711.997 2605.43 761.678L2627.45 758.814C2622.31 718.375 2643.16 677.468 2681.9 658.912L2672.44 639.018Z" fill="#CA22FF"/>
<path d="M2807.56 664.967C2770.91 626.976 2715.12 618.535 2669.99 640.234L2679.68 660.214C2716.41 642.529 2761.81 649.361 2791.68 680.23L2807.56 664.967Z" fill="#43FF33"/>
<path d="M2825.8 803.354C2850.84 756.886 2841.91 701.177 2807.51 664.785L2791.42 680.093C2819.44 709.7 2826.75 755.031 2806.43 792.871L2825.8 803.354Z" fill="#3ABAFF"/>
<path d="M2700.34 860.663C2752.2 870.508 2802.61 845.176 2826.92 801.393L2807.47 790.679C2787.7 826.331 2746.69 846.981 2704.48 839.033L2700.34 860.663Z" fill="#FFDE2E"/>
<path d="M2637.14 1994.01C2576.04 1973.1 2537.76 1915.67 2538.4 1854.4L2565.56 1854.78C2565.01 1904.65 2596.13 1951.42 2645.82 1968.5L2637.14 1994.01Z" fill="#CA22FF"/>
<path d="M2800.33 1772.66C2837.31 1825.6 2834.32 1894.56 2797.65 1943.64L2775.94 1927.31C2805.81 1887.37 2808.3 1831.25 2778.26 1788.13L2800.33 1772.66Z" fill="#FFDE2E"/>
<path d="M2639.77 1720.72C2701.4 1701.44 2766.24 1725.11 2801.96 1774.89L2779.83 1790.65C2750.78 1750.11 2698.03 1730.8 2647.86 1746.42L2639.77 1720.72Z" fill="#FF383F"/>
<path d="M2718.49 1969.8C2667.53 1984.75 2614.57 1964.34 2585.92 1922.89L2604.35 1910.25C2627.64 1944 2670.73 1960.65 2712.21 1948.55L2718.49 1969.8Z" fill="#FFDE2E"/>
<path d="M2722.47 1746.4C2771.48 1764.05 2801.6 1810.87 2800.28 1860.27L2778.38 1859.61C2779.48 1819.4 2754.99 1781.28 2715.14 1766.86L2722.47 1746.4Z" fill="#3ABAFF"/>
<path d="M2592.54 1786.91C2624.16 1745.52 2677.89 1730.94 2724.59 1747.1L2717.35 1767.79C2679.35 1754.6 2635.61 1766.44 2609.83 1800.07L2592.54 1786.91Z" fill="#43FF33"/>
<path d="M2213.4 1547.93C2152.3 1527.03 2114.02 1469.59 2114.66 1408.33L2141.82 1408.7C2141.27 1458.57 2172.39 1505.34 2222.08 1522.42L2213.4 1547.93Z" fill="#CA22FF"/>
<path d="M2376.58 1326.58C2413.57 1379.52 2410.57 1448.48 2373.9 1497.56L2352.19 1481.23C2382.07 1441.3 2384.55 1385.18 2354.52 1342.06L2376.58 1326.58Z" fill="#FFDE2E"/>
<path d="M2216.02 1274.64C2277.65 1255.36 2342.49 1279.03 2378.21 1328.81L2356.09 1344.57C2327.04 1304.04 2274.29 1284.73 2224.11 1300.34L2216.02 1274.64Z" fill="#FF383F"/>
<path d="M2294.75 1523.72C2243.79 1538.67 2190.82 1518.26 2162.18 1476.81L2180.6 1464.17C2203.9 1497.93 2246.99 1514.58 2288.47 1502.47L2294.75 1523.72Z" fill="#FFDE2E"/>
<path d="M2168.8 1340.83C2200.42 1299.45 2254.15 1284.86 2300.84 1301.03L2293.61 1321.71C2255.6 1308.53 2211.87 1320.36 2186.09 1354L2168.8 1340.83Z" fill="#43FF33"/>
<path d="M2298.73 1300.32C2347.73 1317.98 2377.85 1364.8 2376.54 1414.19L2354.64 1413.54C2355.73 1373.33 2331.25 1335.21 2291.4 1320.78L2298.73 1300.32Z" fill="#3ABAFF"/>
<path d="M2213.4 1547.93C2152.3 1527.03 2114.02 1469.59 2114.66 1408.33L2141.82 1408.7C2141.27 1458.57 2172.39 1505.34 2222.08 1522.42L2213.4 1547.93Z" fill="#CA22FF"/>
<path d="M2376.58 1326.58C2413.57 1379.52 2410.57 1448.48 2373.9 1497.56L2352.19 1481.23C2382.07 1441.3 2384.55 1385.18 2354.52 1342.06L2376.58 1326.58Z" fill="#FFDE2E"/>
<path d="M2216.02 1274.64C2277.65 1255.36 2342.49 1279.03 2378.21 1328.81L2356.09 1344.57C2327.04 1304.04 2274.29 1284.73 2224.11 1300.34L2216.02 1274.64Z" fill="#FF383F"/>
<path d="M2294.75 1523.72C2243.79 1538.67 2190.82 1518.26 2162.18 1476.81L2180.6 1464.17C2203.9 1497.93 2246.99 1514.58 2288.47 1502.47L2294.75 1523.72Z" fill="#FFDE2E"/>
<path d="M2168.8 1340.83C2200.42 1299.45 2254.15 1284.86 2300.84 1301.03L2293.61 1321.71C2255.6 1308.53 2211.87 1320.36 2186.09 1354L2168.8 1340.83Z" fill="#43FF33"/>
<path d="M2748.65 1476.81C2770.53 1464.73 2796.95 1468.69 2814.35 1484.81L2807.18 1492.5C2793.03 1479.37 2771.53 1476.13 2753.71 1485.93L2748.65 1476.81Z" fill="#3ABAFF"/>
<path d="M2810.93 1585.98C2784.04 1601.4 2751.21 1597.02 2729.32 1577.39L2738.05 1567.71C2755.86 1583.7 2782.58 1587.29 2804.48 1574.78L2810.93 1585.98Z" fill="#CA22FF"/>
<path d="M2782.77 1457.05C2813.57 1460.48 2837.49 1483.39 2843.58 1512.15L2830.82 1514.81C2825.88 1491.39 2806.42 1472.73 2781.37 1469.91L2782.77 1457.05Z" fill="#FFDE2E"/>
<path d="M2713.21 1498.51C2725.77 1470.18 2754.83 1454.29 2784.09 1457.17L2782.77 1470.14C2758.96 1467.78 2735.29 1480.69 2725.04 1503.73L2713.21 1498.51Z" fill="#FF383F"/>
<path d="M2827.95 1548.98C2817.21 1572.09 2793.08 1584.73 2769.06 1581.93L2770.34 1571.29C2789.89 1573.58 2809.53 1563.31 2818.3 1544.52L2827.95 1548.98Z" fill="#FFDE2E"/>
<path d="M2722.12 1536.49C2717.21 1511.99 2728.96 1488 2749.58 1476.27L2754.74 1485.43C2737.96 1494.96 2728.38 1514.48 2732.34 1534.43L2722.12 1536.49Z" fill="#43FF33"/>
<path d="M2317.99 1259.71C2275.78 1245.27 2249.34 1205.59 2249.78 1163.27L2268.55 1163.52C2268.17 1197.98 2289.66 1230.29 2323.99 1242.09L2317.99 1259.71Z" fill="#CA22FF"/>
<path d="M2430.72 1106.8C2456.27 1143.37 2454.21 1191.01 2428.87 1224.91L2413.88 1213.63C2434.51 1186.04 2436.23 1147.27 2415.48 1117.49L2430.72 1106.8Z" fill="#FFDE2E"/>
<path d="M2319.81 1070.92C2362.38 1057.6 2407.18 1073.95 2431.85 1108.34L2416.57 1119.23C2396.5 1091.22 2360.06 1077.88 2325.39 1088.67L2319.81 1070.92Z" fill="#FF383F"/>
<path d="M2374.19 1242.98C2338.99 1253.31 2302.4 1239.21 2282.61 1210.58L2295.34 1201.85C2311.43 1225.17 2341.2 1236.67 2369.85 1228.3L2374.19 1242.98Z" fill="#FFDE2E"/>
<path d="M2287.18 1116.64C2309.03 1088.05 2346.14 1077.98 2378.4 1089.14L2373.4 1103.43C2347.15 1094.32 2316.94 1102.5 2299.13 1125.73L2287.18 1116.64Z" fill="#43FF33"/>
<path d="M1676.47 1241.97C1634.26 1227.53 1607.81 1187.85 1608.25 1145.53L1627.02 1145.79C1626.64 1180.24 1648.13 1212.55 1682.46 1224.35L1676.47 1241.97Z" fill="#CA22FF"/>
<path d="M1789.19 1089.06C1814.75 1125.63 1812.68 1173.27 1787.34 1207.17L1772.35 1195.89C1792.99 1168.3 1794.7 1129.54 1773.95 1099.75L1789.19 1089.06Z" fill="#FFDE2E"/>
<path d="M1678.28 1053.18C1720.85 1039.86 1765.65 1056.21 1790.32 1090.6L1775.04 1101.49C1754.97 1073.48 1718.53 1060.15 1683.87 1070.93L1678.28 1053.18Z" fill="#FF383F"/>
<path d="M1732.66 1225.24C1697.46 1235.57 1660.87 1221.47 1641.08 1192.84L1653.81 1184.11C1669.9 1207.43 1699.67 1218.93 1728.33 1210.56L1732.66 1225.24Z" fill="#FFDE2E"/>
<path d="M1645.65 1098.9C1667.5 1070.31 1704.61 1060.24 1736.87 1071.41L1731.87 1085.69C1705.62 1076.59 1675.41 1084.76 1657.6 1108L1645.65 1098.9Z" fill="#43FF33"/>
<path d="M1758.14 1831.39C1758.84 1766.81 1801.4 1712.46 1859.77 1693.87L1867.93 1719.78C1820.4 1734.89 1785.73 1779.09 1785.08 1831.63L1758.14 1831.39Z" fill="#3ABAFF"/>
<path d="M2019.47 1916.99C1980.79 1968.7 1914.36 1987.47 1856.26 1968.02L1864.97 1942.29C1912.26 1958.15 1966.33 1942.92 1997.87 1900.89L2019.47 1916.99Z" fill="#FFDE2E"/>
<path d="M2018.49 1748.24C2056.11 1800.73 2053.95 1869.72 2017.87 1919.24L1995.97 1903.17C2025.36 1862.88 2027.17 1806.73 1996.62 1763.98L2018.49 1748.24Z" fill="#43FF33"/>
<path d="M1806.62 1901.05C1776.45 1857.34 1779.24 1800.65 1809.63 1760.46L1827.4 1774C1802.65 1806.69 1800.34 1852.83 1824.83 1888.43L1806.62 1901.05Z" fill="#CA22FF"/>
<path d="M2020.02 1834.83C2018.6 1886.9 1983.58 1930.17 1936.26 1944.4L1930.02 1923.4C1968.55 1911.84 1997.08 1876.65 1998.29 1834.28L2020.02 1834.83Z" fill="#3ABAFF"/>
<path d="M1940.83 1724.14C1990.04 1741.2 2020.73 1787.65 2020.01 1837.06L1998.1 1836.67C1998.71 1796.45 1973.77 1758.62 1933.75 1744.68L1940.83 1724.14Z" fill="#FF383F"/>
<path d="M1495.02 1399.76C1495.73 1335.18 1538.28 1280.83 1596.66 1262.24L1604.81 1288.16C1557.28 1303.26 1522.62 1347.46 1521.97 1400.01L1495.02 1399.76Z" fill="#3ABAFF"/>
<path d="M1756.35 1485.36C1717.67 1537.08 1651.25 1555.84 1593.15 1536.4L1601.86 1510.66C1649.14 1526.52 1703.21 1511.29 1734.75 1469.26L1756.35 1485.36Z" fill="#FFDE2E"/>
<path d="M1755.37 1316.62C1792.99 1369.1 1790.83 1438.09 1754.75 1487.61L1732.85 1471.54C1762.24 1431.25 1764.05 1375.11 1733.5 1332.35L1755.37 1316.62Z" fill="#43FF33"/>
<path d="M1543.5 1469.42C1513.34 1425.72 1516.12 1369.02 1546.51 1328.83L1564.29 1342.37C1539.53 1375.07 1537.22 1421.2 1561.72 1456.8L1543.5 1469.42Z" fill="#CA22FF"/>
<path d="M1756.9 1403.21C1755.49 1455.27 1720.47 1498.55 1673.15 1512.78L1666.91 1491.77C1705.43 1480.21 1733.96 1445.02 1735.18 1402.65L1756.9 1403.21Z" fill="#3ABAFF"/>
<path d="M1677.72 1292.51C1726.93 1309.57 1757.61 1356.02 1756.89 1405.43L1734.99 1405.04C1735.59 1364.82 1710.65 1327 1670.63 1313.05L1677.72 1292.51Z" fill="#FF383F"/>
<path d="M2144.36 1763.7C2145.31 1699.13 2188.07 1644.94 2246.51 1626.57L2254.57 1652.51C2206.99 1667.44 2172.16 1711.51 2171.31 1764.05L2144.36 1763.7Z" fill="#FFDE2E"/>
<path d="M2242.96 1900.39C2181.86 1879.49 2143.58 1822.05 2144.22 1760.78L2171.38 1761.16C2170.83 1811.03 2201.95 1857.8 2251.64 1874.88L2242.96 1900.39Z" fill="#FF383F"/>
<path d="M2403.5 1849.79C2364.32 1901.13 2297.72 1919.26 2239.81 1899.26L2248.76 1873.61C2295.89 1889.92 2350.11 1875.21 2382.05 1833.49L2403.5 1849.79Z" fill="#3ABAFF"/>
<path d="M2406.14 1679.04C2443.13 1731.98 2440.14 1800.94 2403.47 1850.02L2381.76 1833.69C2411.63 1793.75 2414.12 1737.63 2384.08 1694.51L2406.14 1679.04Z" fill="#43FF33"/>
<path d="M2245.59 1627.1C2307.22 1607.82 2372.06 1631.49 2407.78 1681.27L2385.65 1697.03C2356.6 1656.5 2303.85 1637.19 2253.68 1652.8L2245.59 1627.1Z" fill="#CA22FF"/>
<path d="M2314.5 1647.77C2365.81 1660.17 2401.3 1704.03 2405.41 1753.94L2383.27 1755.69C2379.95 1715.06 2351.1 1679.34 2309.36 1669.19L2314.5 1647.77Z" fill="#FF383F"/>
<path d="M2187.75 1701.73C2215.43 1656.78 2268.13 1636.62 2316.85 1648.18L2311.66 1669.77C2272 1660.34 2229.1 1676.71 2206.52 1713.25L2187.75 1701.73Z" fill="#3ABAFF"/>
<path d="M2199.13 1838.83C2165.27 1798.35 2162.83 1741.98 2189.22 1699.42L2208.05 1711.18C2186.55 1745.81 2188.5 1791.69 2216 1824.67L2199.13 1838.83Z" fill="#43FF33"/>
<path d="M2334.78 1871.74C2285.91 1891.68 2231.47 1876.86 2198.96 1838.77L2215.89 1824.41C2242.34 1855.43 2286.64 1867.53 2326.43 1851.36L2334.78 1871.74Z" fill="#CA22FF"/>
<path d="M2405.15 1753.1C2409.41 1805.72 2378.84 1853.14 2332.72 1872.64L2324.14 1852.16C2361.69 1836.31 2386.6 1797.73 2383.2 1754.92L2405.15 1753.1Z" fill="#FFDE2E"/>
<path d="M1862.52 1220.72C1863.47 1156.15 1906.23 1101.96 1964.68 1083.59L1972.73 1109.53C1925.15 1124.46 1890.32 1168.53 1889.47 1221.07L1862.52 1220.72Z" fill="#FFDE2E"/>
<path d="M1961.12 1357.41C1900.02 1336.5 1861.74 1279.06 1862.38 1217.8L1889.54 1218.17C1888.99 1268.04 1920.11 1314.81 1969.8 1331.9L1961.12 1357.41Z" fill="#FF383F"/>
<path d="M2121.66 1306.81C2082.48 1358.15 2015.88 1376.28 1957.97 1356.28L1966.92 1330.63C2014.06 1346.94 2068.27 1332.23 2100.21 1290.5L2121.66 1306.81Z" fill="#3ABAFF"/>
<path d="M2124.31 1136.06C2161.29 1189 2158.3 1257.96 2121.63 1307.04L2099.92 1290.7C2129.79 1250.77 2132.28 1194.65 2102.24 1151.53L2124.31 1136.06Z" fill="#43FF33"/>
<path d="M1963.75 1084.12C2025.38 1064.83 2090.22 1088.51 2125.94 1138.28L2103.81 1154.05C2074.76 1113.51 2022.01 1094.2 1971.84 1109.82L1963.75 1084.12Z" fill="#CA22FF"/>
<path d="M2032.66 1104.79C2083.97 1117.19 2119.46 1161.05 2123.57 1210.96L2101.43 1212.7C2098.11 1172.07 2069.26 1136.36 2027.52 1126.2L2032.66 1104.79Z" fill="#FF383F"/>
<path d="M1905.91 1158.74C1933.59 1113.8 1986.29 1093.64 2035.01 1105.2L2029.82 1126.79C1990.16 1117.35 1947.26 1133.73 1924.68 1170.26L1905.91 1158.74Z" fill="#3ABAFF"/>
<path d="M1917.3 1295.85C1883.43 1255.36 1880.99 1198.99 1907.38 1156.43L1926.21 1168.2C1904.71 1202.83 1906.66 1248.7 1934.16 1281.69L1917.3 1295.85Z" fill="#43FF33"/>
<path d="M2052.95 1328.76C2004.07 1348.7 1949.63 1333.87 1917.12 1295.79L1934.06 1281.42C1960.5 1312.44 2004.8 1324.54 2044.59 1308.38L2052.95 1328.76Z" fill="#CA22FF"/>
<path d="M2123.31 1210.12C2127.57 1262.73 2097 1310.16 2050.88 1329.66L2042.3 1309.17C2079.86 1293.32 2104.76 1254.75 2101.36 1211.93L2123.31 1210.12Z" fill="#FFDE2E"/>
<path d="M2632.27 1105.84C2696.58 1099.9 2755.02 1136.63 2779.52 1192.78L2754.59 1203.56C2734.67 1157.84 2687.13 1127.91 2634.8 1132.67L2632.27 1105.84Z" fill="#FF383F"/>
<path d="M2506.88 1218.46C2521.15 1155.48 2574.18 1111.29 2635.16 1105.39L2637.69 1132.44C2588.04 1137.21 2544.86 1173.14 2533.17 1224.37L2506.88 1218.46Z" fill="#CA22FF"/>
<path d="M2574.32 1372.68C2519.09 1339.21 2493.96 1274.92 2507.67 1215.21L2534.13 1221.37C2522.94 1269.97 2543.35 1322.31 2588.25 1349.61L2574.32 1372.68Z" fill="#43FF33"/>
<path d="M2744.38 1357.1C2695.69 1399.52 2626.8 1403.9 2574.09 1372.68L2588.01 1349.35C2630.91 1374.79 2686.97 1371.28 2726.64 1336.82L2744.38 1357.1Z" fill="#3ABAFF"/>
<path d="M2778.9 1191.92C2804.64 1251.14 2788.02 1318.14 2742.34 1358.96L2724.3 1338.65C2761.51 1305.43 2775.08 1250.92 2754.2 1202.7L2778.9 1191.92Z" fill="#FFDE2E"/>
<path d="M2765.7 1262.64C2758.84 1314.98 2719.02 1354.95 2669.83 1364.35L2665.73 1342.53C2705.78 1334.9 2738.21 1302.4 2743.85 1259.82L2765.7 1262.64Z" fill="#FF383F"/>
<path d="M2698.53 1142.37C2746.16 1165.1 2771.83 1215.35 2765.54 1265.03L2743.52 1262.16C2748.67 1221.72 2727.81 1180.82 2689.08 1162.26L2698.53 1142.37Z" fill="#CA22FF"/>
<path d="M2563.42 1168.32C2600.06 1130.33 2655.85 1121.88 2700.98 1143.58L2691.29 1163.56C2654.56 1145.88 2609.16 1152.71 2579.29 1183.58L2563.42 1168.32Z" fill="#43FF33"/>
<path d="M2545.17 1306.7C2520.13 1260.24 2529.06 1204.53 2563.46 1168.13L2579.55 1183.44C2551.53 1213.05 2544.22 1258.38 2564.54 1296.22L2545.17 1306.7Z" fill="#3ABAFF"/>
<path d="M2670.63 1364.01C2618.78 1373.86 2568.36 1348.53 2544.05 1304.74L2563.5 1294.03C2583.27 1329.68 2624.28 1350.33 2666.49 1342.38L2670.63 1364.01Z" fill="#FFDE2E"/>
<path d="M2689.07 1589C2682.22 1641.34 2642.39 1681.31 2593.21 1690.71L2589.11 1668.89C2629.15 1661.26 2661.59 1628.75 2667.23 1586.18L2689.07 1589Z" fill="#FF383F"/>
<path d="M2621.9 1468.72C2669.54 1491.46 2695.21 1541.7 2688.91 1591.38L2666.89 1588.52C2672.04 1548.08 2651.19 1507.17 2612.45 1488.62L2621.9 1468.72Z" fill="#CA22FF"/>
<path d="M2486.79 1494.67C2523.44 1456.68 2579.22 1448.24 2624.36 1469.94L2614.67 1489.92C2577.94 1472.24 2532.53 1479.07 2502.67 1509.94L2486.79 1494.67Z" fill="#43FF33"/>
<path d="M2468.55 1633.06C2443.51 1586.59 2452.44 1530.88 2486.84 1494.49L2502.92 1509.8C2474.9 1539.41 2467.6 1584.74 2487.92 1622.58L2468.55 1633.06Z" fill="#3ABAFF"/>
<path d="M2594.01 1690.37C2542.15 1700.21 2491.74 1674.88 2467.43 1631.1L2486.88 1620.38C2506.65 1656.04 2547.66 1676.69 2589.87 1668.74L2594.01 1690.37Z" fill="#FFDE2E"/>
<path d="M2038.68 1534.8C2031.82 1587.14 1992 1627.11 1942.81 1636.51L1938.71 1614.69C1978.76 1607.06 2011.19 1574.55 2016.83 1531.98L2038.68 1534.8Z" fill="#FF383F"/>
<path d="M1971.51 1414.52C2019.14 1437.26 2044.81 1487.5 2038.52 1537.18L2016.5 1534.32C2021.64 1493.88 2000.79 1452.97 1962.05 1434.42L1971.51 1414.52Z" fill="#CA22FF"/>
<path d="M1836.39 1440.47C1873.04 1402.48 1928.83 1394.04 1973.96 1415.74L1964.27 1435.72C1927.54 1418.04 1882.14 1424.87 1852.27 1455.74L1836.39 1440.47Z" fill="#43FF33"/>
<path d="M1818.15 1578.86C1793.11 1532.39 1802.04 1476.68 1836.44 1440.29L1852.53 1455.6C1824.51 1485.21 1817.2 1530.54 1837.52 1568.38L1818.15 1578.86Z" fill="#3ABAFF"/>
<path d="M1943.61 1636.17C1891.75 1646.01 1841.34 1620.68 1817.03 1576.9L1836.48 1566.18C1856.25 1601.84 1897.26 1622.49 1939.47 1614.54L1943.61 1636.17Z" fill="#FFDE2E"/>
<path d="M1731.21 1772.29C1724.36 1824.63 1684.54 1864.6 1635.35 1874.01L1631.25 1852.18C1671.29 1844.55 1703.73 1812.05 1709.37 1769.47L1731.21 1772.29Z" fill="#FF383F"/>
<path d="M1664.04 1652.02C1711.68 1674.75 1737.35 1725 1731.06 1774.68L1709.04 1771.81C1714.18 1731.37 1693.33 1690.47 1654.59 1671.91L1664.04 1652.02Z" fill="#CA22FF"/>
<path d="M1528.93 1677.97C1565.58 1639.98 1621.37 1631.54 1666.5 1653.23L1656.81 1673.21C1620.08 1655.53 1574.68 1662.36 1544.81 1693.23L1528.93 1677.97Z" fill="#43FF33"/>
<path d="M1510.69 1816.35C1485.65 1769.89 1494.58 1714.18 1528.98 1677.79L1545.07 1693.09C1517.04 1722.7 1509.74 1768.03 1530.06 1805.87L1510.69 1816.35Z" fill="#3ABAFF"/>
<path d="M1636.15 1873.66C1584.29 1883.51 1533.88 1858.18 1509.57 1814.39L1529.02 1803.68C1548.79 1839.33 1589.8 1859.98 1632.01 1852.03L1636.15 1873.66Z" fill="#FFDE2E"/>
<path d="M1203.31 1057.99C1142.21 1078.9 1103.93 1136.33 1104.57 1197.6L1131.73 1197.22C1131.18 1147.35 1162.3 1100.58 1211.99 1083.5L1203.31 1057.99Z" fill="#CA22FF"/>
<path d="M1366.5 1279.34C1403.48 1226.4 1400.49 1157.44 1363.82 1108.36L1342.11 1124.69C1371.98 1164.63 1374.47 1220.75 1344.44 1263.87L1366.5 1279.34Z" fill="#FFDE2E"/>
<path d="M1205.94 1331.28C1267.57 1350.56 1332.41 1326.89 1368.13 1277.11L1346 1261.35C1316.95 1301.89 1264.2 1321.2 1214.03 1305.58L1205.94 1331.28Z" fill="#FF383F"/>
<path d="M1284.66 1082.2C1233.7 1067.25 1180.74 1087.66 1152.1 1129.11L1170.52 1141.75C1193.81 1108 1236.9 1091.35 1278.38 1103.45L1284.66 1082.2Z" fill="#FFDE2E"/>
<path d="M1288.65 1305.6C1337.65 1287.95 1367.77 1241.13 1366.45 1191.73L1344.55 1192.39C1345.65 1232.6 1321.16 1270.72 1281.31 1285.14L1288.65 1305.6Z" fill="#3ABAFF"/>
<path d="M1158.71 1265.09C1190.33 1306.48 1244.06 1321.06 1290.76 1304.9L1283.52 1284.21C1245.52 1297.4 1201.78 1285.56 1176 1251.93L1158.71 1265.09Z" fill="#43FF33"/>
<path d="M779.569 1504.07C718.468 1524.97 680.187 1582.41 680.827 1643.67L707.99 1643.3C707.44 1593.43 738.555 1546.66 788.247 1529.58L779.569 1504.07Z" fill="#CA22FF"/>
<path d="M942.751 1725.42C979.739 1672.48 976.745 1603.52 940.073 1554.44L918.364 1570.77C948.24 1610.7 950.723 1666.82 920.69 1709.94L942.751 1725.42Z" fill="#FFDE2E"/>
<path d="M782.192 1777.36C843.825 1796.64 908.665 1772.97 944.384 1723.19L922.26 1707.43C893.208 1747.96 840.456 1767.27 790.282 1751.66L782.192 1777.36Z" fill="#FF383F"/>
<path d="M860.916 1528.28C809.959 1513.33 756.993 1533.74 728.351 1575.19L746.772 1587.83C770.067 1554.07 813.159 1537.42 854.64 1549.53L860.916 1528.28Z" fill="#FFDE2E"/>
<path d="M734.966 1711.17C766.59 1752.55 820.317 1767.14 867.012 1750.97L859.776 1730.29C821.773 1743.47 778.039 1731.64 752.257 1698L734.966 1711.17Z" fill="#43FF33"/>
<path d="M864.901 1751.68C913.901 1734.02 944.024 1687.2 942.71 1637.81L920.809 1638.46C921.903 1678.67 897.42 1716.79 857.57 1731.22L864.901 1751.68Z" fill="#3ABAFF"/>
<path d="M779.569 1504.07C718.468 1524.97 680.187 1582.41 680.827 1643.67L707.99 1643.3C707.44 1593.43 738.555 1546.66 788.247 1529.58L779.569 1504.07Z" fill="#CA22FF"/>
<path d="M942.751 1725.42C979.739 1672.48 976.745 1603.52 940.073 1554.44L918.364 1570.77C948.24 1610.7 950.723 1666.82 920.69 1709.94L942.751 1725.42Z" fill="#FFDE2E"/>
<path d="M782.192 1777.36C843.825 1796.64 908.665 1772.97 944.384 1723.19L922.26 1707.43C893.208 1747.96 840.456 1767.27 790.282 1751.66L782.192 1777.36Z" fill="#FF383F"/>
<path d="M860.916 1528.28C809.959 1513.33 756.993 1533.74 728.351 1575.19L746.772 1587.83C770.067 1554.07 813.159 1537.42 854.64 1549.53L860.916 1528.28Z" fill="#FFDE2E"/>
<path d="M734.966 1711.17C766.59 1752.55 820.317 1767.14 867.012 1750.97L859.776 1730.29C821.773 1743.47 778.039 1731.64 752.257 1698L734.966 1711.17Z" fill="#43FF33"/>
<path d="M1314.82 1575.19C1336.7 1587.27 1363.12 1583.31 1380.52 1567.19L1373.35 1559.5C1359.2 1572.63 1337.7 1575.87 1319.88 1566.07L1314.82 1575.19Z" fill="#3ABAFF"/>
<path d="M1377.1 1466.02C1350.21 1450.6 1317.38 1454.98 1295.49 1474.61L1304.22 1484.29C1322.03 1468.3 1348.75 1464.71 1370.65 1477.22L1377.1 1466.02Z" fill="#CA22FF"/>
<path d="M1348.94 1594.95C1379.74 1591.52 1403.66 1568.61 1409.75 1539.85L1396.99 1537.19C1392.05 1560.61 1372.59 1579.27 1347.54 1582.09L1348.94 1594.95Z" fill="#FFDE2E"/>
<path d="M1279.38 1553.49C1291.94 1581.82 1321 1597.71 1350.26 1594.83L1348.94 1581.86C1325.13 1584.22 1301.46 1571.31 1291.21 1548.27L1279.38 1553.49Z" fill="#FF383F"/>
<path d="M1394.12 1503.02C1383.38 1479.91 1359.25 1467.27 1335.23 1470.07L1336.51 1480.71C1356.06 1478.42 1375.7 1488.69 1384.47 1507.48L1394.12 1503.02Z" fill="#FFDE2E"/>
<path d="M1288.29 1515.51C1283.38 1540.01 1295.13 1564 1315.75 1575.73L1320.91 1566.57C1304.13 1557.04 1294.55 1537.52 1298.51 1517.57L1288.29 1515.51Z" fill="#43FF33"/>
<path d="M884.164 1792.29C841.955 1806.73 815.509 1846.41 815.951 1888.73L834.717 1888.48C834.336 1854.02 855.831 1821.71 890.159 1809.91L884.164 1792.29Z" fill="#CA22FF"/>
<path d="M996.893 1945.2C1022.44 1908.63 1020.38 1860.99 995.043 1827.09L980.046 1838.37C1000.68 1865.96 1002.4 1904.73 981.653 1934.51L996.893 1945.2Z" fill="#FFDE2E"/>
<path d="M885.976 1981.09C928.553 1994.4 973.345 1978.05 998.021 1943.66L982.737 1932.77C962.667 1960.78 926.225 1974.12 891.565 1963.33L885.976 1981.09Z" fill="#FF383F"/>
<path d="M940.36 1809.02C905.158 1798.69 868.568 1812.79 848.782 1841.42L861.507 1850.15C877.6 1826.83 907.368 1815.33 936.024 1823.7L940.36 1809.02Z" fill="#FFDE2E"/>
<path d="M853.351 1935.36C875.198 1963.95 912.314 1974.02 944.571 1962.86L939.572 1948.57C913.319 1957.68 883.107 1949.5 865.296 1926.27L853.351 1935.36Z" fill="#43FF33"/>
<path d="M242.635 1810.03C200.426 1824.47 173.98 1864.15 174.422 1906.47L193.187 1906.21C192.807 1871.76 214.302 1839.45 248.63 1827.65L242.635 1810.03Z" fill="#CA22FF"/>
<path d="M355.364 1962.94C380.916 1926.37 378.847 1878.73 353.514 1844.83L338.517 1856.11C359.156 1883.7 360.872 1922.46 340.124 1952.25L355.364 1962.94Z" fill="#FFDE2E"/>
<path d="M244.447 1998.82C287.024 2012.14 331.817 1995.79 356.492 1961.4L341.208 1950.51C321.139 1978.52 284.696 1991.85 250.036 1981.07L244.447 1998.82Z" fill="#FF383F"/>
<path d="M298.831 1826.76C263.629 1816.43 227.039 1830.53 207.253 1859.16L219.979 1867.89C236.071 1844.57 265.839 1833.07 294.495 1841.44L298.831 1826.76Z" fill="#FFDE2E"/>
<path d="M211.823 1953.1C233.669 1981.69 270.785 1991.76 303.042 1980.59L298.044 1966.31C271.791 1975.41 241.578 1967.24 223.767 1944L211.823 1953.1Z" fill="#43FF33"/>
<path d="M324.307 1220.61C325.015 1285.19 367.565 1339.54 425.944 1358.13L434.101 1332.22C386.57 1317.11 351.905 1272.91 351.251 1220.37L324.307 1220.61Z" fill="#3ABAFF"/>
<path d="M585.64 1135.01C546.959 1083.3 480.533 1064.53 422.434 1083.98L431.142 1109.71C478.427 1093.85 532.499 1109.08 564.035 1151.11L585.64 1135.01Z" fill="#FFDE2E"/>
<path d="M584.658 1303.76C622.281 1251.27 620.118 1182.28 584.039 1132.76L562.136 1148.83C591.528 1189.12 593.336 1245.27 562.785 1288.02L584.658 1303.76Z" fill="#43FF33"/>
<path d="M372.79 1150.95C342.623 1194.66 345.41 1251.35 375.797 1291.54L393.572 1278C368.816 1245.31 366.51 1199.17 391.004 1163.57L372.79 1150.95Z" fill="#CA22FF"/>
<path d="M586.187 1217.17C584.775 1165.1 549.753 1121.83 502.432 1107.6L496.192 1128.6C534.719 1140.16 563.25 1175.35 564.462 1217.72L586.187 1217.17Z" fill="#3ABAFF"/>
<path d="M507.003 1327.86C556.213 1310.8 586.897 1264.35 586.178 1214.94L564.271 1215.33C564.88 1255.55 539.94 1293.38 499.919 1307.32L507.003 1327.86Z" fill="#FF383F"/>
<path d="M61.1913 1652.24C61.8992 1716.82 104.45 1771.17 162.828 1789.76L170.985 1763.84C123.454 1748.74 88.7888 1704.54 88.1352 1651.99L61.1913 1652.24Z" fill="#3ABAFF"/>
<path d="M322.525 1566.64C283.844 1514.92 217.417 1496.16 159.318 1515.6L168.027 1541.34C215.311 1525.48 269.383 1540.71 300.92 1582.74L322.525 1566.64Z" fill="#FFDE2E"/>
<path d="M321.543 1735.38C359.165 1682.9 357.002 1613.91 320.924 1564.39L299.02 1580.46C328.413 1620.75 330.22 1676.89 299.67 1719.65L321.543 1735.38Z" fill="#43FF33"/>
<path d="M109.675 1582.58C79.5079 1626.28 82.2943 1682.98 112.682 1723.17L130.456 1709.63C105.701 1676.93 103.395 1630.8 127.889 1595.2L109.675 1582.58Z" fill="#CA22FF"/>
<path d="M323.071 1648.79C321.659 1596.73 286.637 1553.45 239.317 1539.22L233.077 1560.23C271.604 1571.79 300.135 1606.98 301.346 1649.35L323.071 1648.79Z" fill="#3ABAFF"/>
<path d="M243.888 1759.49C293.097 1742.43 323.782 1695.98 323.063 1646.57L301.156 1646.96C301.765 1687.18 276.825 1725 236.804 1738.95L243.888 1759.49Z" fill="#FF383F"/>
<path d="M710.533 1288.3C711.483 1352.87 754.236 1407.06 812.684 1425.43L820.744 1399.49C773.157 1384.56 738.326 1340.49 737.476 1287.95L710.533 1288.3Z" fill="#FFDE2E"/>
<path d="M809.133 1151.61C748.032 1172.51 709.75 1229.95 710.39 1291.22L737.554 1290.84C737.004 1240.97 768.119 1194.2 817.811 1177.12L809.133 1151.61Z" fill="#FF383F"/>
<path d="M969.667 1202.21C930.493 1150.87 863.89 1132.74 805.98 1152.74L814.933 1178.39C862.064 1162.08 916.28 1176.79 948.217 1218.51L969.667 1202.21Z" fill="#3ABAFF"/>
<path d="M972.314 1372.96C1009.3 1320.02 1006.31 1251.06 969.636 1201.98L947.928 1218.31C977.803 1258.25 980.287 1314.37 950.254 1357.49L972.314 1372.96Z" fill="#43FF33"/>
<path d="M811.756 1424.9C873.388 1444.18 938.228 1420.51 973.948 1370.73L951.824 1354.97C922.771 1395.5 870.019 1414.81 819.846 1399.2L811.756 1424.9Z" fill="#CA22FF"/>
<path d="M880.67 1404.23C931.977 1391.83 967.47 1347.97 971.575 1298.06L949.439 1296.31C946.122 1336.94 917.266 1372.66 875.533 1382.81L880.67 1404.23Z" fill="#FF383F"/>
<path d="M753.916 1350.27C781.602 1395.22 834.298 1415.38 883.024 1403.82L877.827 1382.23C838.168 1391.66 795.27 1375.29 772.688 1338.75L753.916 1350.27Z" fill="#3ABAFF"/>
<path d="M765.304 1213.17C731.439 1253.65 728.997 1310.02 755.387 1352.58L774.22 1340.82C752.717 1306.19 754.666 1260.31 782.174 1227.32L765.304 1213.17Z" fill="#43FF33"/>
<path d="M900.955 1180.26C852.081 1160.32 797.643 1175.14 765.128 1213.23L782.064 1227.59C808.514 1196.57 852.807 1184.47 892.599 1200.64L900.955 1180.26Z" fill="#CA22FF"/>
<path d="M971.321 1298.9C975.578 1246.28 945.012 1198.86 898.886 1179.36L890.308 1199.84C927.865 1215.69 952.772 1254.27 949.372 1297.08L971.321 1298.9Z" fill="#FFDE2E"/>
<path d="M428.694 1831.28C429.644 1895.85 472.397 1950.04 530.845 1968.41L538.905 1942.47C491.318 1927.54 456.487 1883.47 455.637 1830.93L428.694 1831.28Z" fill="#FFDE2E"/>
<path d="M527.294 1694.59C466.193 1715.5 427.912 1772.94 428.551 1834.2L455.715 1833.83C455.165 1783.96 486.28 1737.19 535.972 1720.1L527.294 1694.59Z" fill="#FF383F"/>
<path d="M687.828 1745.19C648.654 1693.85 582.051 1675.72 524.14 1695.72L533.094 1721.37C580.225 1705.06 634.44 1719.77 666.378 1761.5L687.828 1745.19Z" fill="#3ABAFF"/>
<path d="M690.476 1915.94C727.463 1863 724.469 1794.04 687.798 1744.96L666.089 1761.3C695.965 1801.23 698.448 1857.35 668.415 1900.47L690.476 1915.94Z" fill="#43FF33"/>
<path d="M529.916 1967.88C591.549 1987.17 656.389 1963.49 692.109 1913.72L669.984 1897.95C640.932 1938.49 588.18 1957.8 538.006 1942.18L529.916 1967.88Z" fill="#CA22FF"/>
<path d="M598.831 1947.21C650.138 1934.81 685.632 1890.95 689.737 1841.04L667.6 1839.3C664.283 1879.93 635.427 1915.64 593.694 1925.8L598.831 1947.21Z" fill="#FF383F"/>
<path d="M472.077 1893.26C499.763 1938.2 552.459 1958.36 601.185 1946.8L595.988 1925.21C556.33 1934.65 513.431 1918.27 490.849 1881.74L472.077 1893.26Z" fill="#3ABAFF"/>
<path d="M483.466 1756.15C449.6 1796.64 447.159 1853.01 473.548 1895.57L492.381 1883.8C470.879 1849.17 472.828 1803.3 500.335 1770.31L483.466 1756.15Z" fill="#43FF33"/>
<path d="M619.116 1723.24C570.242 1703.3 515.804 1718.13 483.289 1756.21L500.225 1770.58C526.675 1739.56 570.968 1727.46 610.76 1743.62L619.116 1723.24Z" fill="#CA22FF"/>
<path d="M689.482 1841.88C693.739 1789.27 663.173 1741.84 617.047 1722.34L608.469 1742.83C646.026 1758.68 670.933 1797.25 667.533 1840.07L689.482 1841.88Z" fill="#FFDE2E"/>
<path d="M1198.44 1946.16C1262.75 1952.1 1321.19 1915.37 1345.69 1859.22L1320.76 1848.44C1300.84 1894.16 1253.3 1924.09 1200.97 1919.33L1198.44 1946.16Z" fill="#FF383F"/>
<path d="M1073.05 1833.54C1087.32 1896.52 1140.35 1940.71 1201.33 1946.61L1203.86 1919.56C1154.21 1914.79 1111.03 1878.86 1099.34 1827.63L1073.05 1833.54Z" fill="#CA22FF"/>
<path d="M1140.49 1679.32C1085.26 1712.79 1060.13 1777.08 1073.84 1836.79L1100.3 1830.63C1089.11 1782.03 1109.52 1729.69 1154.42 1702.39L1140.49 1679.32Z" fill="#43FF33"/>
<path d="M1310.55 1694.9C1261.86 1652.48 1192.97 1648.1 1140.26 1679.32L1154.18 1702.65C1197.08 1677.21 1253.14 1680.72 1292.81 1715.18L1310.55 1694.9Z" fill="#3ABAFF"/>
<path d="M1345.07 1860.08C1370.81 1800.86 1354.19 1733.86 1308.51 1693.04L1290.47 1713.35C1327.68 1746.57 1341.25 1801.08 1320.37 1849.3L1345.07 1860.08Z" fill="#FFDE2E"/>
<path d="M1331.87 1789.36C1325.01 1737.02 1285.19 1697.05 1236 1687.65L1231.9 1709.47C1271.95 1717.1 1304.38 1749.6 1310.02 1792.18L1331.87 1789.36Z" fill="#FF383F"/>
<path d="M1264.7 1909.63C1312.33 1886.9 1338 1836.65 1331.71 1786.97L1309.69 1789.84C1314.84 1830.28 1293.98 1871.18 1255.25 1889.74L1264.7 1909.63Z" fill="#CA22FF"/>
<path d="M1129.59 1883.68C1166.23 1921.67 1222.02 1930.12 1267.15 1908.42L1257.46 1888.44C1220.73 1906.12 1175.33 1899.29 1145.46 1868.42L1129.59 1883.68Z" fill="#43FF33"/>
<path d="M1111.34 1745.3C1086.3 1791.76 1095.23 1847.47 1129.63 1883.87L1145.72 1868.56C1117.7 1838.95 1110.39 1793.62 1130.71 1755.78L1111.34 1745.3Z" fill="#3ABAFF"/>
<path d="M1236.8 1687.99C1184.95 1678.14 1134.53 1703.47 1110.22 1747.26L1129.67 1757.97C1149.44 1722.32 1190.45 1701.67 1232.66 1709.62L1236.8 1687.99Z" fill="#FFDE2E"/>
<path d="M1255.24 1463C1248.39 1410.66 1208.56 1370.69 1159.38 1361.29L1155.28 1383.11C1195.32 1390.74 1227.76 1423.25 1233.4 1465.82L1255.24 1463Z" fill="#FF383F"/>
<path d="M1188.07 1583.28C1235.71 1560.54 1261.38 1510.3 1255.08 1460.62L1233.07 1463.48C1238.21 1503.92 1217.36 1544.83 1178.62 1563.38L1188.07 1583.28Z" fill="#CA22FF"/>
<path d="M1052.96 1557.33C1089.61 1595.32 1145.39 1603.76 1190.53 1582.06L1180.84 1562.08C1144.11 1579.76 1098.71 1572.93 1068.84 1542.06L1052.96 1557.33Z" fill="#43FF33"/>
<path d="M1034.72 1418.94C1009.68 1465.41 1018.61 1521.12 1053.01 1557.51L1069.1 1542.2C1041.07 1512.59 1033.77 1467.26 1054.09 1429.42L1034.72 1418.94Z" fill="#3ABAFF"/>
<path d="M1160.18 1361.63C1108.32 1351.79 1057.91 1377.12 1033.6 1420.9L1053.05 1431.62C1072.82 1395.96 1113.83 1375.31 1156.04 1383.26L1160.18 1361.63Z" fill="#FFDE2E"/>
<path d="M604.845 1517.2C597.987 1464.86 558.166 1424.89 508.979 1415.49L504.881 1437.31C544.925 1444.94 577.359 1477.45 583.003 1520.02L604.845 1517.2Z" fill="#FF383F"/>
<path d="M537.676 1637.48C585.314 1614.74 610.981 1564.5 604.686 1514.82L582.666 1517.68C587.814 1558.12 566.96 1599.03 528.225 1617.58L537.676 1637.48Z" fill="#CA22FF"/>
<path d="M402.564 1611.53C439.21 1649.52 494.996 1657.96 540.129 1636.26L530.441 1616.28C493.712 1633.96 448.307 1627.13 418.442 1596.26L402.564 1611.53Z" fill="#43FF33"/>
<path d="M384.318 1473.14C359.277 1519.61 368.209 1575.32 402.611 1611.71L418.697 1596.4C390.675 1566.79 383.368 1521.46 403.688 1483.62L384.318 1473.14Z" fill="#3ABAFF"/>
<path d="M509.783 1415.83C457.924 1405.99 407.511 1431.32 383.202 1475.1L402.651 1485.82C422.418 1450.16 463.429 1429.51 505.638 1437.46L509.783 1415.83Z" fill="#FFDE2E"/>
<path d="M297.385 1279.71C290.527 1227.37 250.706 1187.4 201.518 1177.99L197.42 1199.82C237.464 1207.45 269.899 1239.95 275.542 1282.53L297.385 1279.71Z" fill="#FF383F"/>
<path d="M230.215 1399.98C277.853 1377.25 303.52 1327 297.225 1277.32L275.206 1280.19C280.354 1320.63 259.5 1361.53 220.764 1380.09L230.215 1399.98Z" fill="#CA22FF"/>
<path d="M95.1041 1374.03C131.75 1412.02 187.536 1420.46 232.669 1398.77L222.981 1378.79C186.252 1396.47 140.847 1389.64 110.983 1358.77L95.1041 1374.03Z" fill="#43FF33"/>
<path d="M76.8577 1235.65C51.8169 1282.11 60.7488 1337.82 95.1504 1374.21L111.236 1358.91C83.2148 1329.3 75.908 1283.97 96.2277 1246.13L76.8577 1235.65Z" fill="#3ABAFF"/>
<path d="M202.323 1178.34C150.464 1168.49 100.05 1193.82 75.7412 1237.61L95.1905 1248.32C114.957 1212.67 155.968 1192.02 198.177 1199.97L202.323 1178.34Z" fill="#FFDE2E"/>
</g>
<defs>
<linearGradient id="paint0_linear_2_3" x1="0" y1="0" x2="2880" y2="2048" gradientUnits="userSpaceOnUse">
<stop offset="0.000860938" stop-color="#661DC4"/>
<stop offset="1" stop-color="#2E0252"/>
</linearGradient>
<clipPath id="clip0_2_3">
<rect width="2880" height="2048" fill="white"/>
</clipPath>
</defs>
</svg>
