<svg width="670" height="260" viewBox="0 0 670 260" fill="none" xmlns="http://www.w3.org/2000/svg">
<path d="M118.673 0.873546C187.423 -2.70114 246.055 50.0754 249.633 118.753C253.211 187.43 200.381 246.002 131.632 249.577C62.8817 253.151 4.24989 200.374 0.671563 131.697C-2.90666 63.0208 49.924 4.44813 118.673 0.873546ZM221.292 119.859C218.517 66.6041 173.052 25.6799 119.742 28.4521C66.4342 31.2243 25.4667 76.6418 28.2419 129.897C31.016 183.151 76.4821 224.076 129.79 221.303C183.1 218.532 224.067 173.114 221.292 119.859Z" fill="#3ABAFF" stroke="white"/>
<path d="M41.6245 76.3677L20.5392 56.1837C-8.71593 100.845 -6.29759 159.851 27.1299 202.025L47.142 181.163C24.6051 150.376 22.6294 109.048 41.6245 76.3677Z" fill="#CA22FF"/>
<path d="M124.822 28.9635L132.19 0.646468C81.9107 -2.25215 34.4616 25.5899 12.511 70.8718L40.8575 78.232C57.7695 47.9009 90.0665 28.9495 124.822 28.9635Z" fill="#FF383F"/>
<path d="M115.428 0.424732L124.718 29.4349C156.224 29.1932 186.075 44.5583 204.164 70.3303L233.204 61.0506C208.854 20.1392 162.912 -3.50976 115.428 0.424732Z" fill="#43FF33"/>
<path d="M241.968 170.352C258.281 128.524 250.731 80.7742 222.308 46.0034L204.62 70.3022C221.016 94.2649 225.7 124.603 217.26 152.403L241.968 170.352Z" fill="#FFDE2E"/>
<path d="M262.915 232.161L263.039 231.807L262.734 231.589L261.027 230.364L260.746 230.163L260.459 230.354C252.621 235.562 241.74 235.142 231.18 232.386C220.988 229.725 211.219 224.919 205.048 221.118C216.824 212.111 224.169 203.883 229.174 196.307C234.256 188.615 236.912 181.612 239.341 175.21L239.345 175.198L239.346 175.198L239.382 175.102C239.899 173.74 240.405 172.408 240.923 171.1C246.733 175.42 254.497 183.72 260.268 193.01C263.238 197.79 265.67 202.815 267.038 207.676C268.407 212.539 268.704 217.206 267.448 221.295L267.343 221.639L267.635 221.848L269.019 222.841L269.323 223.059L269.618 222.829C276.567 217.41 286.52 216.953 294.043 222.346C303.188 228.903 305.281 241.624 298.717 250.759L299.113 251.044L298.717 250.759C292.154 259.895 279.419 261.986 270.274 255.428L269.982 255.835L270.274 255.428C262.751 250.035 260 240.47 262.915 232.161Z" fill="#820282" stroke="white"/>
<path d="M278.581 156.956C278.581 151.406 278.581 146.428 278.581 142.02C278.743 137.45 278.826 133.125 278.826 129.044C278.988 124.8 279.071 120.474 279.071 116.067C279.234 111.496 279.397 106.355 279.561 100.642C279.561 97.3769 280.704 95.0101 282.992 93.5409C285.443 91.9092 287.975 91.0929 290.59 91.0929C292.551 91.0929 294.267 91.827 295.737 93.2962C297.371 94.602 298.188 96.5616 298.188 99.1731C298.188 104.885 298.106 110.109 297.943 114.843C297.943 119.413 297.861 123.983 297.697 128.554C297.535 132.961 297.371 137.45 297.208 142.02C297.208 146.591 297.208 151.651 297.208 157.201C297.208 160.139 297.697 162.669 298.678 164.79C299.822 166.913 301.211 168.709 302.844 170.177C304.642 171.646 306.522 172.707 308.482 173.36C310.443 174.013 312.322 174.34 314.119 174.34C317.551 174.34 321.391 173.034 325.639 170.423C330.051 167.648 333.809 164.138 336.913 159.894C336.586 153.854 336.341 148.386 336.179 143.489C336.015 138.43 335.933 133.777 335.933 129.533C335.933 125.127 335.933 120.555 335.933 115.822C335.933 111.088 336.26 106.844 336.913 103.09C337.567 99.1731 338.71 95.99 340.345 93.5409C341.979 91.0929 344.511 89.8684 347.942 89.8684C350.067 90.1953 352.027 91.0929 353.825 92.5621C355.622 93.8679 356.521 95.7453 356.521 98.1933C356.031 104.07 355.541 110.435 355.05 117.291C354.56 123.983 354.315 131.166 354.315 138.837C354.315 142.755 354.397 146.917 354.56 151.325C354.724 155.568 355.05 159.894 355.541 164.301C356.195 165.934 357.174 167.892 358.482 170.177C359.952 172.462 361.342 174.748 362.649 177.033C364.12 179.318 365.344 181.521 366.325 183.644C367.305 185.602 367.796 187.154 367.796 188.296C367.796 190.907 366.734 193.111 364.609 194.907C362.485 196.702 360.197 197.6 357.747 197.6C356.276 197.6 354.724 196.947 353.09 195.641C351.619 194.499 350.23 193.029 348.923 191.234C347.616 189.438 346.39 187.561 345.247 185.602C344.266 183.807 343.531 182.174 343.041 180.706C338.793 184.296 333.891 187.235 328.335 189.52C322.779 191.805 316.979 192.948 310.933 192.948C305.705 192.948 301.047 191.887 296.963 189.765C293.041 187.643 289.691 184.868 286.913 181.44C284.136 178.012 282.012 174.176 280.541 169.932C279.234 165.526 278.581 161.2 278.581 156.956ZM465.834 116.312C470.9 123.33 473.432 129.452 473.432 134.675C473.432 140.225 470.573 143.897 464.854 145.693L413.629 160.873C415.753 164.138 418.449 166.668 421.717 168.464C425.149 170.259 428.58 171.157 432.011 171.157C437.403 171.157 442.468 170.34 447.207 168.709C452.109 166.913 456.684 163.812 460.932 159.404C462.076 158.262 463.384 157.69 464.854 157.69C466.815 157.69 468.776 158.67 470.737 160.628C472.861 162.424 473.923 164.465 473.923 166.75C473.923 169.035 472.779 171.401 470.492 173.85C468.367 176.298 465.507 178.665 461.913 180.951C458.318 183.073 454.233 184.787 449.658 186.093C445.082 187.561 440.426 188.296 435.688 188.296C430.949 188.296 425.884 187.561 420.492 186.093C415.263 184.623 410.361 182.338 405.786 179.237C401.21 175.972 397.453 171.81 394.511 166.75C391.57 161.69 390.1 155.487 390.1 148.142C390.1 140.306 392.632 131.329 397.698 121.208C400.965 114.843 405.949 110.191 412.648 107.252C419.511 104.151 426.701 102.601 434.217 102.601C440.426 102.601 446.308 103.743 451.864 106.029C457.583 108.313 462.239 111.741 465.834 116.312ZM409.462 144.469L454.069 131.492C453.252 127.248 451.047 124.147 447.452 122.188C444.02 120.066 440.181 119.005 435.933 119.005C431.194 119.005 427.109 119.903 423.678 121.699C420.41 123.33 417.714 125.453 415.589 128.064C413.465 130.676 411.913 133.45 410.932 136.389C409.952 139.327 409.462 142.02 409.462 144.469ZM496.717 131.982C495.083 129.697 494.265 126.514 494.265 122.433C494.265 117.863 495.083 113.619 496.717 109.701C498.35 105.621 500.72 102.111 503.825 99.1731C506.929 96.2347 510.769 93.9491 515.344 92.3174C519.919 90.5213 525.229 89.6237 531.276 89.6237C535.033 89.6237 538.955 90.1953 543.04 91.3376C547.125 92.3174 550.801 93.6232 554.07 95.2548C557.501 96.8875 560.278 98.7649 562.402 100.887C564.526 102.846 565.589 104.804 565.589 106.763C565.589 109.538 564.526 111.741 562.402 113.374C560.278 115.006 558.317 115.822 556.52 115.822C555.867 115.822 555.05 115.659 554.07 115.332C548.514 112.558 543.612 110.599 539.363 109.457C535.115 108.313 531.357 107.743 528.089 107.743C522.86 107.743 518.939 109.211 516.324 112.149C513.874 114.924 512.648 118.433 512.648 122.678C512.648 126.595 514.036 129.615 516.814 131.737C519.592 133.696 523.024 135.41 527.108 136.878C531.357 138.184 535.932 139.491 540.834 140.797C545.736 141.939 550.23 143.653 554.315 145.938C558.563 148.223 562.076 151.243 564.854 154.997C567.632 158.588 569.02 163.567 569.02 169.932C569.02 178.584 565.834 184.949 559.462 189.03C553.252 193.274 544.755 195.396 533.971 195.396C529.56 195.396 524.984 195.152 520.246 194.662C515.507 194.172 511.177 193.355 507.256 192.213C503.497 191.234 500.393 189.846 497.942 188.051C495.491 186.255 494.265 183.97 494.265 181.196C494.265 179.073 494.838 177.115 495.981 175.319C497.288 173.36 499.004 172.381 501.128 172.381C501.455 172.381 501.7 172.462 501.864 172.626C502.027 172.626 502.273 172.626 502.599 172.626C508.318 175.237 513.71 177.033 518.775 178.012C523.841 178.829 528.252 179.237 532.011 179.237C539.363 179.237 544.51 178.339 547.452 176.543C550.392 174.748 551.863 172.218 551.863 168.953C551.863 166.342 550.801 164.138 548.677 162.342C546.716 160.384 544.184 158.833 541.079 157.69C538.138 156.384 534.87 155.242 531.276 154.262C527.844 153.283 524.658 152.304 521.716 151.325C517.142 149.856 512.648 147.733 508.236 144.959C503.988 142.184 500.148 137.858 496.717 131.982ZM605.539 156.956C605.703 153.692 605.784 150.508 605.784 147.407C605.784 144.306 605.867 141.286 606.029 138.348L606.765 121.208H598.677C596.39 121.208 594.347 121.208 592.55 121.208C590.915 121.046 589.445 120.719 588.138 120.23C586.831 119.577 585.85 118.597 585.196 117.291C584.543 115.985 584.216 114.108 584.216 111.66C584.216 109.701 584.625 107.987 585.442 106.518C586.422 104.885 587.893 104.07 589.853 104.07C591.814 104.07 594.265 104.151 597.206 104.315C600.311 104.477 603.742 104.477 607.5 104.315C607.5 95.3371 607.337 86.4405 607.01 77.6262C606.683 68.8119 606.52 59.427 606.52 49.4694C606.52 46.6945 607.5 44.7358 609.461 43.5936C611.421 42.2878 613.546 41.6349 615.834 41.6349C619.265 41.6349 621.716 42.9407 623.186 45.5522C624.657 48.0002 625.638 51.0199 626.128 54.6112C626.618 58.2025 626.7 61.9563 626.373 65.8745C626.209 69.6283 626.128 72.7302 626.128 75.1782C626.128 85.4617 625.883 95.0924 625.393 104.07C633.236 104.07 640.671 103.988 647.696 103.824C654.886 103.499 660.442 103.09 664.363 102.601C666.324 102.927 667.712 103.988 668.529 105.784C669.51 107.416 670 109.211 670 111.171C670 113.945 669.346 115.985 668.039 117.291C666.896 118.597 664.608 119.577 661.177 120.23C657.909 120.882 653.334 121.208 647.451 121.208C641.733 121.208 634.216 121.208 624.902 121.208C624.576 126.595 624.331 132.145 624.167 137.858C624.167 143.572 624.167 149.611 624.167 155.976C624.167 162.342 625.311 167.239 627.599 170.667C629.885 173.932 632.827 175.564 636.422 175.564C640.343 175.564 643.856 174.176 646.961 171.401C650.065 168.464 653.088 164.628 656.029 159.894C657.01 158.262 658.644 157.445 660.932 157.445C663.22 157.445 665.261 158.262 667.058 159.894C669.02 161.526 670 163.485 670 165.77C670 169.035 668.857 172.299 666.569 175.564C664.281 178.665 661.34 181.521 657.745 184.133C654.15 186.745 650.148 188.868 645.735 190.499C641.324 192.132 637.076 192.948 632.991 192.948C627.925 192.948 623.595 191.887 620 189.765C616.569 187.643 613.792 184.868 611.667 181.44C609.543 178.012 607.991 174.176 607.01 169.932C606.029 165.526 605.539 161.2 605.539 156.956Z" fill="#F3F2F2"/>
</svg>
