<svg width="871" height="518" viewBox="0 0 871 518" fill="none" xmlns="http://www.w3.org/2000/svg">
<path d="M109.698 485.3C109.926 482.156 110.108 479.079 110.245 476.072C110.382 473.064 110.45 470.01 110.45 466.911C110.45 464.724 110.405 462.514 110.313 460.281C110.268 458.047 110.199 455.769 110.108 453.445C110.108 452.943 110.359 452.556 110.86 452.282C111.407 451.963 112 451.804 112.638 451.804C113.139 451.804 113.617 451.895 114.073 452.077C114.574 452.26 114.916 452.533 115.099 452.898C116.192 452.396 117.354 452.009 118.585 451.736C119.861 451.417 121.137 451.257 122.413 451.257C125.239 451.257 127.631 451.804 129.591 452.898C131.596 453.946 133.214 455.336 134.444 457.068C135.675 458.754 136.563 460.668 137.11 462.81C137.703 464.952 137.999 467.094 137.999 469.236C137.999 472.061 137.543 474.636 136.632 476.96C135.766 479.239 134.604 481.221 133.145 482.907C131.733 484.548 130.092 485.847 128.224 486.804C126.401 487.761 124.509 488.308 122.55 488.445C122.185 488.49 121.752 488.513 121.251 488.513C120.75 488.559 120.18 488.581 119.542 488.581C116.853 488.581 114.461 488.285 112.364 487.693C111.726 487.693 111.111 487.579 110.518 487.351C109.972 487.077 109.698 486.508 109.698 485.642V485.3ZM115.304 458.572C115.304 459.756 115.304 460.873 115.304 461.921C115.349 462.969 115.372 464.017 115.372 465.066C115.372 466.615 115.349 468.119 115.304 469.577C115.304 470.99 115.281 472.426 115.235 473.884C115.19 475.342 115.121 476.846 115.03 478.396C114.985 479.9 114.939 481.495 114.893 483.181C116.306 483.5 117.81 483.659 119.405 483.659C120.818 483.659 122.299 483.432 123.849 482.976C125.444 482.475 126.902 481.723 128.224 480.72C129.545 479.672 130.639 478.327 131.505 476.687C132.371 475.001 132.804 472.95 132.804 470.534C132.804 468.62 132.599 466.797 132.188 465.066C131.778 463.334 131.117 461.83 130.206 460.554C129.34 459.232 128.201 458.184 126.788 457.409C125.421 456.635 123.757 456.247 121.798 456.247C120.75 456.247 119.679 456.407 118.585 456.726C117.491 457.045 116.397 457.66 115.304 458.572ZM165.069 469.167C166.482 471.127 167.188 472.836 167.188 474.294C167.188 475.844 166.391 476.869 164.796 477.37L150.509 481.609C151.101 482.52 151.853 483.226 152.765 483.728C153.722 484.229 154.679 484.48 155.636 484.48C157.14 484.48 158.552 484.252 159.874 483.796C161.241 483.295 162.517 482.429 163.702 481.198C164.021 480.879 164.386 480.72 164.796 480.72C165.343 480.72 165.89 480.993 166.436 481.54C167.029 482.042 167.325 482.611 167.325 483.249C167.325 483.887 167.006 484.548 166.368 485.232C165.776 485.915 164.978 486.576 163.976 487.214C162.973 487.807 161.834 488.285 160.558 488.65C159.281 489.06 157.983 489.265 156.661 489.265C155.339 489.265 153.927 489.06 152.423 488.65C150.964 488.24 149.597 487.601 148.321 486.736C147.045 485.824 145.997 484.662 145.177 483.249C144.356 481.837 143.946 480.105 143.946 478.054C143.946 475.866 144.653 473.36 146.065 470.534C146.977 468.757 148.367 467.458 150.235 466.638C152.149 465.772 154.155 465.339 156.251 465.339C157.983 465.339 159.623 465.658 161.173 466.296C162.768 466.934 164.067 467.891 165.069 469.167ZM149.347 477.029L161.788 473.406C161.56 472.221 160.945 471.355 159.942 470.808C158.985 470.215 157.914 469.919 156.729 469.919C155.408 469.919 154.268 470.17 153.311 470.671C152.4 471.127 151.648 471.719 151.056 472.448C150.463 473.178 150.03 473.952 149.757 474.773C149.483 475.593 149.347 476.345 149.347 477.029ZM173.683 473.542C173.227 472.904 172.999 472.016 172.999 470.876C172.999 469.6 173.227 468.415 173.683 467.322C174.138 466.182 174.799 465.202 175.665 464.382C176.531 463.562 177.602 462.924 178.878 462.468C180.154 461.967 181.635 461.716 183.321 461.716C184.369 461.716 185.463 461.876 186.602 462.195C187.742 462.468 188.767 462.833 189.679 463.288C190.636 463.744 191.41 464.268 192.003 464.861C192.595 465.407 192.892 465.954 192.892 466.501C192.892 467.276 192.595 467.891 192.003 468.347C191.41 468.803 190.864 469.031 190.362 469.031C190.18 469.031 189.952 468.985 189.679 468.894C188.129 468.119 186.762 467.572 185.577 467.253C184.392 466.934 183.344 466.775 182.433 466.775C180.974 466.775 179.88 467.185 179.151 468.005C178.468 468.78 178.126 469.76 178.126 470.945C178.126 472.038 178.513 472.881 179.288 473.474C180.063 474.021 181.02 474.499 182.159 474.909C183.344 475.274 184.62 475.639 185.987 476.003C187.354 476.322 188.608 476.801 189.747 477.439C190.932 478.077 191.912 478.92 192.686 479.968C193.461 480.971 193.849 482.361 193.849 484.138C193.849 486.553 192.96 488.331 191.183 489.47C189.451 490.655 187.081 491.247 184.073 491.247C182.843 491.247 181.567 491.179 180.245 491.042C178.923 490.906 177.716 490.678 176.622 490.359C175.574 490.085 174.708 489.698 174.024 489.197C173.341 488.695 172.999 488.057 172.999 487.282C172.999 486.69 173.158 486.143 173.477 485.642C173.842 485.095 174.321 484.822 174.913 484.822C175.004 484.822 175.073 484.844 175.118 484.89C175.164 484.89 175.232 484.89 175.323 484.89C176.918 485.619 178.422 486.12 179.835 486.394C181.248 486.622 182.478 486.736 183.526 486.736C185.577 486.736 187.013 486.485 187.833 485.984C188.653 485.482 189.063 484.776 189.063 483.865C189.063 483.135 188.767 482.52 188.175 482.019C187.628 481.472 186.921 481.039 186.056 480.72C185.235 480.355 184.324 480.036 183.321 479.763C182.364 479.49 181.476 479.216 180.655 478.943C179.379 478.532 178.126 477.94 176.895 477.165C175.711 476.391 174.64 475.183 173.683 473.542ZM207.657 466.775C207.931 466.547 208.318 466.433 208.819 466.433C210.369 466.57 211.759 467.003 212.989 467.732C214.22 468.415 215.245 469.281 216.065 470.329C216.931 471.332 217.569 472.448 217.979 473.679C218.435 474.909 218.663 476.094 218.663 477.234V477.575C218.982 478.624 219.324 479.444 219.688 480.036C220.053 480.629 220.44 481.085 220.851 481.404C221.306 481.723 221.739 481.928 222.149 482.019C222.605 482.064 223.061 482.087 223.517 482.087C223.927 482.087 224.36 481.996 224.815 481.814C225.317 481.631 225.886 481.54 226.524 481.54C227.117 481.54 227.595 481.791 227.96 482.292C228.37 482.748 228.575 483.249 228.575 483.796C228.575 484.297 228.416 484.753 228.097 485.163C227.823 485.528 227.436 485.847 226.934 486.12C226.479 486.348 225.955 486.531 225.362 486.667C224.815 486.758 224.268 486.804 223.722 486.804C221.99 486.804 220.486 486.439 219.21 485.71C217.934 484.981 216.931 484.138 216.202 483.181C215.291 484.229 214.197 485.049 212.921 485.642C211.645 486.234 210.3 486.531 208.888 486.531C207.612 486.531 206.336 486.325 205.059 485.915C203.783 485.505 202.644 484.89 201.642 484.07C200.639 483.249 199.819 482.247 199.181 481.062C198.543 479.831 198.224 478.396 198.224 476.755C198.224 475.798 198.383 474.795 198.702 473.747C199.067 472.699 199.591 471.697 200.274 470.74C200.958 469.782 201.778 468.939 202.735 468.21C203.738 467.481 204.9 466.98 206.222 466.706H206.632C207.087 466.706 207.429 466.729 207.657 466.775ZM208.067 471.081C206.472 471.583 205.31 472.312 204.581 473.269C203.852 474.18 203.487 475.251 203.487 476.482C203.487 477.94 203.852 479.193 204.581 480.241C205.356 481.244 206.768 481.745 208.819 481.745C210.004 481.745 211.052 481.312 211.964 480.447C212.875 479.581 213.331 478.419 213.331 476.96C213.331 475.958 213.171 475.137 212.852 474.499C212.579 473.816 212.192 473.269 211.69 472.859C211.235 472.403 210.688 472.061 210.05 471.833C209.412 471.56 208.751 471.309 208.067 471.081ZM236.3 460.144C236.254 459.916 236.231 459.711 236.231 459.529C236.231 459.301 236.231 459.073 236.231 458.845C236.231 457.751 236.414 456.589 236.778 455.359C237.143 454.128 237.735 453.012 238.556 452.009C239.376 450.961 240.447 450.095 241.768 449.411C243.09 448.728 244.708 448.386 246.622 448.386C247.397 448.386 248.263 448.568 249.22 448.933C250.222 449.297 251.156 449.799 252.022 450.437C252.934 451.075 253.686 451.827 254.278 452.693C254.916 453.559 255.235 454.47 255.235 455.427C255.235 456.202 254.939 456.817 254.347 457.273C253.754 457.728 253.139 457.956 252.501 457.956C251.863 457.956 251.362 457.728 250.997 457.273C250.632 456.771 250.268 456.247 249.903 455.7C249.539 455.154 249.129 454.652 248.673 454.197C248.217 453.695 247.556 453.445 246.69 453.445C244.731 453.445 243.341 453.969 242.52 455.017C241.746 456.019 241.358 457.159 241.358 458.435C241.358 459.62 241.427 460.782 241.563 461.921C241.746 463.06 241.905 464.086 242.042 464.997C242.087 466.592 242.224 468.073 242.452 469.441C244.64 469.441 246.759 469.418 248.809 469.372C250.86 469.281 252.433 469.167 253.526 469.031C254.073 469.122 254.461 469.418 254.688 469.919C254.962 470.375 255.099 470.876 255.099 471.423C255.099 472.243 254.825 472.859 254.278 473.269C253.777 473.679 253.002 473.952 251.954 474.089C250.906 474.226 249.607 474.294 248.058 474.294C246.554 474.249 244.776 474.226 242.726 474.226C242.726 475.32 242.726 476.459 242.726 477.644C242.771 478.829 242.794 480.082 242.794 481.404C242.794 482.087 242.817 482.907 242.862 483.865C242.908 484.822 242.862 485.733 242.726 486.599C242.634 487.419 242.361 488.126 241.905 488.718C241.495 489.356 240.811 489.675 239.854 489.675C239.216 489.675 238.647 489.47 238.145 489.06C237.644 488.695 237.393 488.148 237.393 487.419C237.393 485.642 237.439 484.024 237.53 482.566C237.621 481.062 237.667 479.626 237.667 478.259C237.667 477.575 237.667 476.915 237.667 476.277C237.667 475.593 237.644 474.909 237.599 474.226H235.206C234.568 474.226 233.998 474.226 233.497 474.226C232.996 474.18 232.563 474.089 232.198 473.952C231.879 473.77 231.629 473.497 231.446 473.132C231.264 472.767 231.173 472.243 231.173 471.56C231.173 471.013 231.287 470.534 231.515 470.124C231.788 469.669 232.198 469.441 232.745 469.441C233.018 469.441 233.315 469.463 233.634 469.509C233.953 469.509 234.295 469.509 234.659 469.509H237.257C237.029 468.187 236.869 466.775 236.778 465.271C236.687 463.767 236.528 462.058 236.3 460.144ZM261.729 487.214C261.957 485.437 262.117 483.591 262.208 481.677C262.345 479.763 262.413 477.849 262.413 475.935V466.98C262.413 466.433 262.664 466.023 263.165 465.749C263.666 465.43 264.236 465.271 264.874 465.271C265.421 465.271 265.945 465.385 266.446 465.613C266.948 465.84 267.289 466.205 267.472 466.706C267.517 467.982 267.54 469.463 267.54 471.15C267.586 472.836 267.608 474.59 267.608 476.413C267.608 478.327 267.54 480.264 267.403 482.224C267.267 484.138 267.153 485.984 267.061 487.761C266.925 488.536 266.606 489.105 266.104 489.47C265.603 489.88 265.056 490.085 264.464 490.085C263.826 490.085 263.211 489.88 262.618 489.47C262.026 489.06 261.729 488.422 261.729 487.556V487.214ZM268.702 455.769C268.474 456.908 268.018 457.774 267.335 458.366C266.651 458.959 265.831 459.255 264.874 459.255C264.509 459.255 264.076 459.21 263.575 459.118C263.074 458.982 262.595 458.777 262.14 458.503C261.729 458.184 261.365 457.774 261.046 457.273C260.727 456.726 260.567 456.042 260.567 455.222C260.567 453.764 260.977 452.715 261.798 452.077C262.618 451.394 263.689 451.052 265.011 451.052C266.332 451.052 267.289 451.462 267.882 452.282C268.474 453.103 268.77 454.037 268.77 455.085C268.77 455.176 268.748 455.29 268.702 455.427C268.702 455.564 268.702 455.678 268.702 455.769ZM297.14 469.167C298.552 471.127 299.259 472.836 299.259 474.294C299.259 475.844 298.461 476.869 296.866 477.37L282.579 481.609C283.171 482.52 283.923 483.226 284.835 483.728C285.792 484.229 286.749 484.48 287.706 484.48C289.21 484.48 290.623 484.252 291.944 483.796C293.311 483.295 294.587 482.429 295.772 481.198C296.091 480.879 296.456 480.72 296.866 480.72C297.413 480.72 297.96 480.993 298.507 481.54C299.099 482.042 299.395 482.611 299.395 483.249C299.395 483.887 299.076 484.548 298.438 485.232C297.846 485.915 297.048 486.576 296.046 487.214C295.043 487.807 293.904 488.285 292.628 488.65C291.352 489.06 290.053 489.265 288.731 489.265C287.41 489.265 285.997 489.06 284.493 488.65C283.035 488.24 281.668 487.601 280.392 486.736C279.115 485.824 278.067 484.662 277.247 483.249C276.427 481.837 276.017 480.105 276.017 478.054C276.017 475.866 276.723 473.36 278.136 470.534C279.047 468.757 280.437 467.458 282.306 466.638C284.22 465.772 286.225 465.339 288.321 465.339C290.053 465.339 291.694 465.658 293.243 466.296C294.838 466.934 296.137 467.891 297.14 469.167ZM281.417 477.029L293.858 473.406C293.63 472.221 293.015 471.355 292.013 470.808C291.056 470.215 289.985 469.919 288.8 469.919C287.478 469.919 286.339 470.17 285.382 470.671C284.47 471.127 283.718 471.719 283.126 472.448C282.533 473.178 282.101 473.952 281.827 474.773C281.554 475.593 281.417 476.345 281.417 477.029ZM323.526 473.542C323.071 472.904 322.843 472.016 322.843 470.876C322.843 469.6 323.071 468.415 323.526 467.322C323.982 466.182 324.643 465.202 325.509 464.382C326.375 463.562 327.446 462.924 328.722 462.468C329.998 461.967 331.479 461.716 333.165 461.716C334.213 461.716 335.307 461.876 336.446 462.195C337.586 462.468 338.611 462.833 339.522 463.288C340.479 463.744 341.254 464.268 341.847 464.861C342.439 465.407 342.735 465.954 342.735 466.501C342.735 467.276 342.439 467.891 341.847 468.347C341.254 468.803 340.707 469.031 340.206 469.031C340.024 469.031 339.796 468.985 339.522 468.894C337.973 468.119 336.606 467.572 335.421 467.253C334.236 466.934 333.188 466.775 332.276 466.775C330.818 466.775 329.724 467.185 328.995 468.005C328.311 468.78 327.97 469.76 327.97 470.945C327.97 472.038 328.357 472.881 329.132 473.474C329.906 474.021 330.864 474.499 332.003 474.909C333.188 475.274 334.464 475.639 335.831 476.003C337.198 476.322 338.451 476.801 339.591 477.439C340.776 478.077 341.755 478.92 342.53 479.968C343.305 480.971 343.692 482.361 343.692 484.138C343.692 486.553 342.804 488.331 341.026 489.47C339.295 490.655 336.925 491.247 333.917 491.247C332.686 491.247 331.41 491.179 330.089 491.042C328.767 490.906 327.559 490.678 326.466 490.359C325.418 490.085 324.552 489.698 323.868 489.197C323.184 488.695 322.843 488.057 322.843 487.282C322.843 486.69 323.002 486.143 323.321 485.642C323.686 485.095 324.164 484.822 324.757 484.822C324.848 484.822 324.916 484.844 324.962 484.89C325.007 484.89 325.076 484.89 325.167 484.89C326.762 485.619 328.266 486.12 329.679 486.394C331.091 486.622 332.322 486.736 333.37 486.736C335.421 486.736 336.856 486.485 337.677 485.984C338.497 485.482 338.907 484.776 338.907 483.865C338.907 483.135 338.611 482.52 338.018 482.019C337.472 481.472 336.765 481.039 335.899 480.72C335.079 480.355 334.168 480.036 333.165 479.763C332.208 479.49 331.319 479.216 330.499 478.943C329.223 478.532 327.97 477.94 326.739 477.165C325.554 476.391 324.483 475.183 323.526 473.542ZM370.558 469.167C371.97 471.127 372.677 472.836 372.677 474.294C372.677 475.844 371.879 476.869 370.284 477.37L355.997 481.609C356.589 482.52 357.341 483.226 358.253 483.728C359.21 484.229 360.167 484.48 361.124 484.48C362.628 484.48 364.041 484.252 365.362 483.796C366.729 483.295 368.005 482.429 369.19 481.198C369.509 480.879 369.874 480.72 370.284 480.72C370.831 480.72 371.378 480.993 371.925 481.54C372.517 482.042 372.813 482.611 372.813 483.249C372.813 483.887 372.494 484.548 371.856 485.232C371.264 485.915 370.466 486.576 369.464 487.214C368.461 487.807 367.322 488.285 366.046 488.65C364.77 489.06 363.471 489.265 362.149 489.265C360.828 489.265 359.415 489.06 357.911 488.65C356.453 488.24 355.086 487.601 353.809 486.736C352.533 485.824 351.485 484.662 350.665 483.249C349.845 481.837 349.434 480.105 349.434 478.054C349.434 475.866 350.141 473.36 351.554 470.534C352.465 468.757 353.855 467.458 355.724 466.638C357.638 465.772 359.643 465.339 361.739 465.339C363.471 465.339 365.112 465.658 366.661 466.296C368.256 466.934 369.555 467.891 370.558 469.167ZM354.835 477.029L367.276 473.406C367.048 472.221 366.433 471.355 365.431 470.808C364.474 470.215 363.403 469.919 362.218 469.919C360.896 469.919 359.757 470.17 358.8 470.671C357.888 471.127 357.136 471.719 356.544 472.448C355.951 473.178 355.518 473.952 355.245 474.773C354.972 475.593 354.835 476.345 354.835 477.029ZM378.897 480.515C378.897 478.965 378.897 477.575 378.897 476.345C378.943 475.069 378.966 473.861 378.966 472.722C379.011 471.537 379.034 470.329 379.034 469.099C379.08 467.823 379.125 466.387 379.171 464.792C379.171 463.881 379.49 463.22 380.128 462.81C380.811 462.354 381.518 462.126 382.247 462.126C382.794 462.126 383.272 462.331 383.683 462.741C384.138 463.106 384.366 463.653 384.366 464.382C384.366 465.977 384.343 467.435 384.298 468.757C384.298 470.033 384.275 471.309 384.229 472.585C384.184 473.816 384.138 475.069 384.093 476.345C384.093 477.621 384.093 479.034 384.093 480.583C384.093 481.404 384.229 482.11 384.503 482.702C384.822 483.295 385.209 483.796 385.665 484.206C386.166 484.616 386.69 484.913 387.237 485.095C387.784 485.277 388.308 485.368 388.809 485.368C389.767 485.368 390.837 485.004 392.022 484.275C393.253 483.5 394.301 482.52 395.167 481.335C395.076 479.649 395.007 478.122 394.962 476.755C394.916 475.342 394.893 474.044 394.893 472.859C394.893 471.628 394.893 470.352 394.893 469.031C394.893 467.709 394.985 466.524 395.167 465.476C395.349 464.382 395.668 463.493 396.124 462.81C396.58 462.126 397.286 461.784 398.243 461.784C398.836 461.876 399.382 462.126 399.884 462.536C400.385 462.901 400.636 463.425 400.636 464.109C400.499 465.749 400.362 467.527 400.226 469.441C400.089 471.309 400.02 473.314 400.02 475.456C400.02 476.55 400.043 477.712 400.089 478.943C400.134 480.128 400.226 481.335 400.362 482.566C400.545 483.021 400.818 483.568 401.183 484.206C401.593 484.844 401.98 485.482 402.345 486.12C402.755 486.758 403.097 487.374 403.37 487.966C403.643 488.513 403.78 488.946 403.78 489.265C403.78 489.994 403.484 490.609 402.892 491.111C402.299 491.612 401.661 491.863 400.977 491.863C400.567 491.863 400.134 491.68 399.679 491.316C399.268 490.997 398.881 490.587 398.517 490.085C398.152 489.584 397.81 489.06 397.491 488.513C397.218 488.012 397.013 487.556 396.876 487.146C395.691 488.148 394.324 488.969 392.774 489.607C391.225 490.245 389.607 490.564 387.921 490.564C386.462 490.564 385.164 490.267 384.024 489.675C382.931 489.083 381.996 488.308 381.222 487.351C380.447 486.394 379.854 485.323 379.444 484.138C379.08 482.907 378.897 481.7 378.897 480.515ZM410.616 473.542C410.16 472.904 409.933 472.016 409.933 470.876C409.933 469.6 410.16 468.415 410.616 467.322C411.072 466.182 411.733 465.202 412.599 464.382C413.464 463.562 414.535 462.924 415.811 462.468C417.087 461.967 418.569 461.716 420.255 461.716C421.303 461.716 422.397 461.876 423.536 462.195C424.675 462.468 425.701 462.833 426.612 463.288C427.569 463.744 428.344 464.268 428.936 464.861C429.529 465.407 429.825 465.954 429.825 466.501C429.825 467.276 429.529 467.891 428.936 468.347C428.344 468.803 427.797 469.031 427.296 469.031C427.114 469.031 426.886 468.985 426.612 468.894C425.063 468.119 423.696 467.572 422.511 467.253C421.326 466.934 420.278 466.775 419.366 466.775C417.908 466.775 416.814 467.185 416.085 468.005C415.401 468.78 415.059 469.76 415.059 470.945C415.059 472.038 415.447 472.881 416.222 473.474C416.996 474.021 417.953 474.499 419.093 474.909C420.278 475.274 421.554 475.639 422.921 476.003C424.288 476.322 425.541 476.801 426.681 477.439C427.865 478.077 428.845 478.92 429.62 479.968C430.395 480.971 430.782 482.361 430.782 484.138C430.782 486.553 429.893 488.331 428.116 489.47C426.384 490.655 424.015 491.247 421.007 491.247C419.776 491.247 418.5 491.179 417.179 491.042C415.857 490.906 414.649 490.678 413.556 490.359C412.507 490.085 411.642 489.698 410.958 489.197C410.274 488.695 409.933 488.057 409.933 487.282C409.933 486.69 410.092 486.143 410.411 485.642C410.776 485.095 411.254 484.822 411.847 484.822C411.938 484.822 412.006 484.844 412.052 484.89C412.097 484.89 412.166 484.89 412.257 484.89C413.852 485.619 415.356 486.12 416.768 486.394C418.181 486.622 419.412 486.736 420.46 486.736C422.511 486.736 423.946 486.485 424.767 485.984C425.587 485.482 425.997 484.776 425.997 483.865C425.997 483.135 425.701 482.52 425.108 482.019C424.561 481.472 423.855 481.039 422.989 480.72C422.169 480.355 421.257 480.036 420.255 479.763C419.298 479.49 418.409 479.216 417.589 478.943C416.313 478.532 415.059 477.94 413.829 477.165C412.644 476.391 411.573 475.183 410.616 473.542ZM471.183 465.202C471.912 465.43 472.436 465.818 472.755 466.365C473.074 466.911 473.233 467.481 473.233 468.073C473.233 468.666 473.028 469.213 472.618 469.714C472.208 470.17 471.729 470.398 471.183 470.398C470.681 470.398 470.157 470.375 469.61 470.329C469.063 470.284 468.494 470.261 467.901 470.261C466.58 470.261 465.304 470.443 464.073 470.808C462.888 471.172 461.931 471.947 461.202 473.132C460.61 474.044 460.199 474.932 459.972 475.798C459.744 476.618 459.63 477.393 459.63 478.122C459.63 479.945 460.245 481.404 461.476 482.497C462.706 483.545 464.119 484.07 465.714 484.07C467.218 484.07 468.448 483.842 469.405 483.386C470.408 482.885 471.502 482.019 472.686 480.788C473.005 480.469 473.37 480.31 473.78 480.31C474.327 480.31 474.874 480.583 475.421 481.13C476.013 481.631 476.309 482.201 476.309 482.839C476.309 483.432 476.036 484.092 475.489 484.822C474.942 485.551 474.19 486.234 473.233 486.872C472.322 487.465 471.274 487.966 470.089 488.376C468.949 488.786 467.765 488.991 466.534 488.991C465.258 488.991 463.891 488.786 462.433 488.376C460.974 488.012 459.63 487.396 458.399 486.531C457.169 485.619 456.143 484.48 455.323 483.113C454.503 481.745 454.093 480.059 454.093 478.054C454.093 475.775 454.822 473.314 456.28 470.671C456.918 469.532 457.693 468.598 458.604 467.868C459.561 467.139 460.564 466.57 461.612 466.159C462.66 465.704 463.731 465.407 464.825 465.271C465.964 465.088 467.058 464.997 468.106 464.997C469.246 464.997 470.271 465.066 471.183 465.202ZM491.827 466.843C492.009 466.706 492.214 466.592 492.442 466.501C492.67 466.365 492.921 466.296 493.194 466.296C494.379 466.387 495.61 466.706 496.886 467.253C498.162 467.8 499.324 468.575 500.372 469.577C501.42 470.58 502.286 471.788 502.97 473.2C503.653 474.613 503.995 476.231 503.995 478.054C503.949 479.968 503.608 481.654 502.97 483.113C502.377 484.525 501.557 485.71 500.509 486.667C499.506 487.624 498.298 488.331 496.886 488.786C495.518 489.288 494.015 489.538 492.374 489.538C491.098 489.538 489.799 489.288 488.477 488.786C487.156 488.331 485.971 487.647 484.923 486.736C483.875 485.779 483.009 484.639 482.325 483.318C481.642 481.996 481.3 480.469 481.3 478.738C481.3 477.188 481.596 475.684 482.188 474.226C482.781 472.722 483.51 471.4 484.376 470.261C485.287 469.122 486.267 468.21 487.315 467.527C488.409 466.843 489.434 466.501 490.392 466.501C490.893 466.501 491.371 466.615 491.827 466.843ZM492.237 470.876C491.417 471.286 490.665 471.719 489.981 472.175C489.343 472.585 488.774 473.087 488.272 473.679C487.817 474.271 487.452 475.001 487.179 475.866C486.951 476.732 486.837 477.803 486.837 479.079C486.837 480.219 487.019 481.153 487.384 481.882C487.794 482.611 488.295 483.204 488.888 483.659C489.526 484.07 490.209 484.366 490.938 484.548C491.713 484.685 492.465 484.753 493.194 484.753C494.744 484.753 496.043 484.138 497.091 482.907C498.139 481.677 498.663 480.173 498.663 478.396C498.663 477.029 498.458 475.912 498.048 475.046C497.683 474.18 497.182 473.497 496.544 472.995C495.951 472.448 495.268 472.038 494.493 471.765C493.718 471.446 492.966 471.15 492.237 470.876ZM509.054 468.073C508.689 467.572 508.507 467.116 508.507 466.706C508.507 466.023 508.826 465.43 509.464 464.929C510.102 464.428 510.763 464.177 511.446 464.177C511.902 464.177 512.335 464.337 512.745 464.656C513.155 464.929 513.497 465.271 513.77 465.681C514.089 466.091 514.363 466.547 514.591 467.048C514.864 467.504 515.092 467.914 515.274 468.279C516.14 467.96 517.166 467.686 518.351 467.458C519.581 467.185 520.88 467.048 522.247 467.048C522.839 467.048 523.569 467.094 524.434 467.185C525.3 467.23 526.143 467.458 526.964 467.868C527.83 468.233 528.604 468.848 529.288 469.714C530.017 470.534 530.564 471.719 530.929 473.269C531.111 474.089 531.202 475.092 531.202 476.277C531.248 477.462 531.293 478.692 531.339 479.968C531.293 481.062 531.27 482.178 531.27 483.318C531.27 484.411 531.179 485.414 530.997 486.325C530.86 487.191 530.61 487.898 530.245 488.445C529.88 488.991 529.334 489.265 528.604 489.265C527.83 489.265 527.169 489.037 526.622 488.581C526.121 488.126 525.87 487.533 525.87 486.804C525.87 485.482 525.938 483.978 526.075 482.292C526.212 480.606 526.28 479.079 526.28 477.712C526.28 476.482 526.166 475.479 525.938 474.704C525.756 473.93 525.483 473.337 525.118 472.927C524.754 472.471 524.275 472.175 523.683 472.038C523.09 471.902 522.429 471.833 521.7 471.833C520.925 471.833 520.128 471.947 519.308 472.175C518.533 472.357 517.758 472.562 516.983 472.79C517.029 473.656 517.052 474.545 517.052 475.456C517.097 476.368 517.12 477.325 517.12 478.327C517.12 479.922 517.12 481.404 517.12 482.771C517.12 484.092 517.029 485.254 516.847 486.257C516.71 487.214 516.414 487.966 515.958 488.513C515.502 489.105 514.841 489.402 513.976 489.402C513.337 489.31 512.813 489.083 512.403 488.718C511.993 488.353 511.788 487.875 511.788 487.282C511.788 485.915 511.834 484.48 511.925 482.976C512.016 481.472 512.061 479.854 512.061 478.122C512.061 477.256 512.039 476.482 511.993 475.798C511.993 475.115 511.97 474.454 511.925 473.816C511.423 473.041 510.968 472.175 510.558 471.218C510.193 470.215 509.692 469.167 509.054 468.073ZM537.081 457.409C536.762 457.045 536.602 456.589 536.602 456.042C536.602 455.359 536.853 454.766 537.354 454.265C537.856 453.718 538.494 453.445 539.268 453.445C540.453 453.445 541.433 454.014 542.208 455.154C542.983 456.247 543.575 457.546 543.985 459.05C544.441 460.554 544.76 462.103 544.942 463.698C545.17 465.294 545.33 466.57 545.421 467.527C546.15 467.344 546.879 467.185 547.608 467.048C548.337 466.911 549.135 466.843 550.001 466.843C550.73 466.843 551.687 466.911 552.872 467.048C554.102 467.139 555.287 467.572 556.427 468.347C557.566 469.076 558.546 470.261 559.366 471.902C560.186 473.542 560.597 475.889 560.597 478.943C560.597 480.401 560.574 481.791 560.528 483.113C560.483 484.434 560.346 485.619 560.118 486.667C559.936 487.715 559.64 488.536 559.229 489.128C558.819 489.766 558.25 490.085 557.52 490.085C556.928 490.085 556.336 489.903 555.743 489.538C555.196 489.174 554.923 488.672 554.923 488.034C554.923 487.26 555.014 486.28 555.196 485.095C555.379 483.865 555.47 482.588 555.47 481.267C555.47 479.581 555.424 478.145 555.333 476.96C555.242 475.73 555.014 474.727 554.649 473.952C554.285 473.178 553.715 472.631 552.94 472.312C552.166 471.947 551.095 471.765 549.727 471.765C549.5 471.765 549.272 471.788 549.044 471.833C548.816 471.833 548.588 471.833 548.36 471.833L545.626 472.517C545.626 475.023 545.58 477.553 545.489 480.105C545.398 482.657 545.239 485.027 545.011 487.214C544.92 487.989 544.601 488.581 544.054 488.991C543.507 489.447 542.914 489.675 542.276 489.675C541.638 489.675 541.091 489.493 540.636 489.128C540.18 488.809 539.952 488.308 539.952 487.624C539.952 485.254 540.02 482.816 540.157 480.31C540.339 477.803 540.431 475.342 540.431 472.927C540.431 471.469 540.431 470.101 540.431 468.825C540.476 467.549 540.408 466.319 540.226 465.134C540.043 463.904 539.701 462.673 539.2 461.443C538.744 460.167 538.038 458.822 537.081 457.409ZM587.667 469.167C589.08 471.127 589.786 472.836 589.786 474.294C589.786 475.844 588.989 476.869 587.393 477.37L573.106 481.609C573.699 482.52 574.451 483.226 575.362 483.728C576.319 484.229 577.276 484.48 578.233 484.48C579.737 484.48 581.15 484.252 582.472 483.796C583.839 483.295 585.115 482.429 586.3 481.198C586.619 480.879 586.983 480.72 587.393 480.72C587.94 480.72 588.487 480.993 589.034 481.54C589.627 482.042 589.923 482.611 589.923 483.249C589.923 483.887 589.604 484.548 588.966 485.232C588.373 485.915 587.576 486.576 586.573 487.214C585.571 487.807 584.431 488.285 583.155 488.65C581.879 489.06 580.58 489.265 579.259 489.265C577.937 489.265 576.524 489.06 575.02 488.65C573.562 488.24 572.195 487.601 570.919 486.736C569.643 485.824 568.595 484.662 567.774 483.249C566.954 481.837 566.544 480.105 566.544 478.054C566.544 475.866 567.25 473.36 568.663 470.534C569.574 468.757 570.964 467.458 572.833 466.638C574.747 465.772 576.752 465.339 578.849 465.339C580.58 465.339 582.221 465.658 583.77 466.296C585.365 466.934 586.664 467.891 587.667 469.167ZM571.944 477.029L584.386 473.406C584.158 472.221 583.543 471.355 582.54 470.808C581.583 470.215 580.512 469.919 579.327 469.919C578.005 469.919 576.866 470.17 575.909 470.671C574.998 471.127 574.246 471.719 573.653 472.448C573.061 473.178 572.628 473.952 572.354 474.773C572.081 475.593 571.944 476.345 571.944 477.029ZM612.55 465.202C613.279 465.43 613.803 465.818 614.122 466.365C614.441 466.911 614.601 467.481 614.601 468.073C614.601 468.666 614.395 469.213 613.985 469.714C613.575 470.17 613.097 470.398 612.55 470.398C612.048 470.398 611.524 470.375 610.977 470.329C610.431 470.284 609.861 470.261 609.268 470.261C607.947 470.261 606.671 470.443 605.44 470.808C604.255 471.172 603.298 471.947 602.569 473.132C601.977 474.044 601.567 474.932 601.339 475.798C601.111 476.618 600.997 477.393 600.997 478.122C600.997 479.945 601.612 481.404 602.843 482.497C604.073 483.545 605.486 484.07 607.081 484.07C608.585 484.07 609.815 483.842 610.772 483.386C611.775 482.885 612.869 482.019 614.054 480.788C614.373 480.469 614.737 480.31 615.147 480.31C615.694 480.31 616.241 480.583 616.788 481.13C617.38 481.631 617.677 482.201 617.677 482.839C617.677 483.432 617.403 484.092 616.856 484.822C616.309 485.551 615.558 486.234 614.601 486.872C613.689 487.465 612.641 487.966 611.456 488.376C610.317 488.786 609.132 488.991 607.901 488.991C606.625 488.991 605.258 488.786 603.8 488.376C602.341 488.012 600.997 487.396 599.767 486.531C598.536 485.619 597.511 484.48 596.69 483.113C595.87 481.745 595.46 480.059 595.46 478.054C595.46 475.775 596.189 473.314 597.647 470.671C598.285 469.532 599.06 468.598 599.972 467.868C600.929 467.139 601.931 466.57 602.979 466.159C604.028 465.704 605.099 465.407 606.192 465.271C607.332 465.088 608.425 464.997 609.474 464.997C610.613 464.997 611.638 465.066 612.55 465.202ZM624.581 487.214C624.809 485.437 624.968 483.591 625.059 481.677C625.196 479.763 625.265 477.849 625.265 475.935V466.98C625.265 466.433 625.515 466.023 626.017 465.749C626.518 465.43 627.087 465.271 627.726 465.271C628.272 465.271 628.796 465.385 629.298 465.613C629.799 465.84 630.141 466.205 630.323 466.706C630.369 467.982 630.392 469.463 630.392 471.15C630.437 472.836 630.46 474.59 630.46 476.413C630.46 478.327 630.392 480.264 630.255 482.224C630.118 484.138 630.004 485.984 629.913 487.761C629.776 488.536 629.457 489.105 628.956 489.47C628.455 489.88 627.908 490.085 627.315 490.085C626.677 490.085 626.062 489.88 625.47 489.47C624.877 489.06 624.581 488.422 624.581 487.556V487.214ZM631.554 455.769C631.326 456.908 630.87 457.774 630.186 458.366C629.503 458.959 628.683 459.255 627.726 459.255C627.361 459.255 626.928 459.21 626.427 459.118C625.925 458.982 625.447 458.777 624.991 458.503C624.581 458.184 624.216 457.774 623.897 457.273C623.578 456.726 623.419 456.042 623.419 455.222C623.419 453.764 623.829 452.715 624.649 452.077C625.47 451.394 626.541 451.052 627.862 451.052C629.184 451.052 630.141 451.462 630.733 452.282C631.326 453.103 631.622 454.037 631.622 455.085C631.622 455.176 631.599 455.29 631.554 455.427C631.554 455.564 631.554 455.678 631.554 455.769ZM638.526 468.073C638.162 467.572 637.979 467.116 637.979 466.706C637.979 466.023 638.298 465.43 638.936 464.929C639.574 464.428 640.235 464.177 640.919 464.177C641.375 464.177 641.785 464.314 642.149 464.587C642.559 464.861 642.901 465.202 643.175 465.613C643.448 465.977 643.699 466.387 643.927 466.843C644.155 467.253 644.36 467.618 644.542 467.937C645.317 467.663 646.137 467.435 647.003 467.253C647.869 467.071 648.826 466.98 649.874 466.98C650.785 466.98 651.742 467.071 652.745 467.253C653.793 467.39 654.864 467.777 655.958 468.415C656.869 467.96 657.918 467.618 659.102 467.39C660.287 467.162 661.518 467.048 662.794 467.048C663.66 467.048 664.64 467.116 665.733 467.253C666.827 467.39 667.852 467.846 668.809 468.62C669.767 469.35 670.564 470.512 671.202 472.107C671.84 473.656 672.159 475.844 672.159 478.669C672.159 480.036 672.136 481.358 672.091 482.634C672.045 483.91 671.908 485.049 671.681 486.052C671.498 487.009 671.202 487.784 670.792 488.376C670.382 488.969 669.812 489.265 669.083 489.265C668.49 489.265 667.898 489.083 667.306 488.718C666.759 488.353 666.485 487.852 666.485 487.214C666.485 486.439 666.576 485.482 666.759 484.343C666.941 483.204 667.032 482.042 667.032 480.857C667.032 479.353 667.009 478.031 666.964 476.892C666.918 475.753 666.736 474.818 666.417 474.089C666.098 473.314 665.619 472.745 664.981 472.38C664.343 472.016 663.432 471.833 662.247 471.833C661.017 471.833 659.832 472.038 658.692 472.448L658.897 473.269C659.034 473.952 659.125 474.773 659.171 475.73C659.262 476.641 659.308 477.621 659.308 478.669C659.308 479.809 659.308 481.016 659.308 482.292C659.308 483.523 659.239 484.662 659.102 485.71C658.966 486.713 658.692 487.556 658.282 488.24C657.918 488.923 657.348 489.265 656.573 489.265C655.798 489.265 655.138 489.037 654.591 488.581C654.089 488.126 653.839 487.533 653.839 486.804C653.839 485.528 653.907 484.047 654.044 482.361C654.181 480.674 654.249 479.148 654.249 477.781C654.249 475.958 653.93 474.522 653.292 473.474C652.654 472.38 651.401 471.833 649.532 471.833C648.484 471.833 647.459 472.016 646.456 472.38V472.448C646.502 473.633 646.524 474.909 646.524 476.277C646.57 477.598 646.593 478.943 646.593 480.31C646.593 481.54 646.593 482.702 646.593 483.796C646.593 484.89 646.502 485.847 646.319 486.667C646.137 487.488 645.818 488.148 645.362 488.65C644.952 489.151 644.314 489.402 643.448 489.402C642.81 489.31 642.286 489.083 641.876 488.718C641.466 488.353 641.261 487.875 641.261 487.282C641.261 485.915 641.306 484.48 641.397 482.976C641.489 481.472 641.534 479.854 641.534 478.122C641.534 477.256 641.511 476.482 641.466 475.798C641.466 475.115 641.443 474.454 641.397 473.816C640.896 473.041 640.44 472.175 640.03 471.218C639.666 470.215 639.164 469.167 638.526 468.073ZM699.093 469.167C700.505 471.127 701.212 472.836 701.212 474.294C701.212 475.844 700.414 476.869 698.819 477.37L684.532 481.609C685.125 482.52 685.877 483.226 686.788 483.728C687.745 484.229 688.702 484.48 689.659 484.48C691.163 484.48 692.576 484.252 693.897 483.796C695.265 483.295 696.541 482.429 697.726 481.198C698.045 480.879 698.409 480.72 698.819 480.72C699.366 480.72 699.913 480.993 700.46 481.54C701.052 482.042 701.349 482.611 701.349 483.249C701.349 483.887 701.03 484.548 700.392 485.232C699.799 485.915 699.002 486.576 697.999 487.214C696.996 487.807 695.857 488.285 694.581 488.65C693.305 489.06 692.006 489.265 690.684 489.265C689.363 489.265 687.95 489.06 686.446 488.65C684.988 488.24 683.621 487.601 682.345 486.736C681.069 485.824 680.02 484.662 679.2 483.249C678.38 481.837 677.97 480.105 677.97 478.054C677.97 475.866 678.676 473.36 680.089 470.534C681 468.757 682.39 467.458 684.259 466.638C686.173 465.772 688.178 465.339 690.274 465.339C692.006 465.339 693.647 465.658 695.196 466.296C696.791 466.934 698.09 467.891 699.093 469.167ZM683.37 477.029L695.811 473.406C695.584 472.221 694.968 471.355 693.966 470.808C693.009 470.215 691.938 469.919 690.753 469.919C689.431 469.919 688.292 470.17 687.335 470.671C686.423 471.127 685.671 471.719 685.079 472.448C684.487 473.178 684.054 473.952 683.78 474.773C683.507 475.593 683.37 476.345 683.37 477.029ZM706.476 468.073C706.111 467.572 705.929 467.116 705.929 466.706C705.929 466.023 706.248 465.43 706.886 464.929C707.524 464.428 708.184 464.177 708.868 464.177C709.324 464.177 709.757 464.337 710.167 464.656C710.577 464.929 710.919 465.271 711.192 465.681C711.511 466.091 711.785 466.547 712.013 467.048C712.286 467.504 712.514 467.914 712.696 468.279C713.562 467.96 714.587 467.686 715.772 467.458C717.003 467.185 718.302 467.048 719.669 467.048C720.261 467.048 720.99 467.094 721.856 467.185C722.722 467.23 723.565 467.458 724.386 467.868C725.252 468.233 726.026 468.848 726.71 469.714C727.439 470.534 727.986 471.719 728.351 473.269C728.533 474.089 728.624 475.092 728.624 476.277C728.67 477.462 728.715 478.692 728.761 479.968C728.715 481.062 728.692 482.178 728.692 483.318C728.692 484.411 728.601 485.414 728.419 486.325C728.282 487.191 728.031 487.898 727.667 488.445C727.302 488.991 726.755 489.265 726.026 489.265C725.252 489.265 724.591 489.037 724.044 488.581C723.543 488.126 723.292 487.533 723.292 486.804C723.292 485.482 723.36 483.978 723.497 482.292C723.634 480.606 723.702 479.079 723.702 477.712C723.702 476.482 723.588 475.479 723.36 474.704C723.178 473.93 722.905 473.337 722.54 472.927C722.175 472.471 721.697 472.175 721.104 472.038C720.512 471.902 719.851 471.833 719.122 471.833C718.347 471.833 717.55 471.947 716.729 472.175C715.955 472.357 715.18 472.562 714.405 472.79C714.451 473.656 714.474 474.545 714.474 475.456C714.519 476.368 714.542 477.325 714.542 478.327C714.542 479.922 714.542 481.404 714.542 482.771C714.542 484.092 714.451 485.254 714.268 486.257C714.132 487.214 713.836 487.966 713.38 488.513C712.924 489.105 712.263 489.402 711.397 489.402C710.759 489.31 710.235 489.083 709.825 488.718C709.415 488.353 709.21 487.875 709.21 487.282C709.21 485.915 709.255 484.48 709.347 482.976C709.438 481.472 709.483 479.854 709.483 478.122C709.483 477.256 709.461 476.482 709.415 475.798C709.415 475.115 709.392 474.454 709.347 473.816C708.845 473.041 708.39 472.175 707.979 471.218C707.615 470.215 707.114 469.167 706.476 468.073ZM739.835 480.515C739.88 479.603 739.903 478.715 739.903 477.849C739.903 476.983 739.926 476.14 739.972 475.32L740.177 470.534H737.921C737.283 470.534 736.713 470.534 736.212 470.534C735.756 470.489 735.346 470.398 734.981 470.261C734.617 470.079 734.343 469.805 734.161 469.441C733.979 469.076 733.888 468.552 733.888 467.868C733.888 467.322 734.002 466.843 734.229 466.433C734.503 465.977 734.913 465.749 735.46 465.749C736.007 465.749 736.69 465.772 737.511 465.818C738.377 465.863 739.334 465.863 740.382 465.818C740.382 463.311 740.336 460.827 740.245 458.366C740.154 455.906 740.108 453.285 740.108 450.505C740.108 449.73 740.382 449.184 740.929 448.865C741.476 448.5 742.068 448.318 742.706 448.318C743.663 448.318 744.347 448.682 744.757 449.411C745.167 450.095 745.44 450.938 745.577 451.941C745.714 452.943 745.737 453.991 745.645 455.085C745.6 456.133 745.577 456.999 745.577 457.683C745.577 460.554 745.509 463.243 745.372 465.749C747.559 465.749 749.633 465.726 751.593 465.681C753.598 465.59 755.147 465.476 756.241 465.339C756.788 465.43 757.175 465.726 757.403 466.228C757.677 466.684 757.813 467.185 757.813 467.732C757.813 468.506 757.631 469.076 757.267 469.441C756.948 469.805 756.309 470.079 755.352 470.261C754.441 470.443 753.165 470.534 751.524 470.534C749.929 470.534 747.833 470.534 745.235 470.534C745.144 472.038 745.076 473.588 745.03 475.183C745.03 476.778 745.03 478.464 745.03 480.241C745.03 482.019 745.349 483.386 745.987 484.343C746.625 485.254 747.446 485.71 748.448 485.71C749.542 485.71 750.522 485.323 751.388 484.548C752.254 483.728 753.097 482.657 753.917 481.335C754.19 480.879 754.646 480.652 755.284 480.652C755.922 480.652 756.492 480.879 756.993 481.335C757.54 481.791 757.813 482.338 757.813 482.976C757.813 483.887 757.494 484.799 756.856 485.71C756.218 486.576 755.398 487.374 754.395 488.103C753.393 488.832 752.276 489.424 751.046 489.88C749.815 490.336 748.63 490.564 747.491 490.564C746.078 490.564 744.871 490.267 743.868 489.675C742.911 489.083 742.136 488.308 741.544 487.351C740.951 486.394 740.518 485.323 740.245 484.138C739.972 482.907 739.835 481.7 739.835 480.515ZM775.382 466.843C775.564 466.706 775.769 466.592 775.997 466.501C776.225 466.365 776.476 466.296 776.749 466.296C777.934 466.387 779.164 466.706 780.44 467.253C781.716 467.8 782.879 468.575 783.927 469.577C784.975 470.58 785.841 471.788 786.524 473.2C787.208 474.613 787.55 476.231 787.55 478.054C787.504 479.968 787.162 481.654 786.524 483.113C785.932 484.525 785.112 485.71 784.063 486.667C783.061 487.624 781.853 488.331 780.44 488.786C779.073 489.288 777.569 489.538 775.929 489.538C774.653 489.538 773.354 489.288 772.032 488.786C770.711 488.331 769.526 487.647 768.477 486.736C767.429 485.779 766.563 484.639 765.88 483.318C765.196 481.996 764.854 480.469 764.854 478.738C764.854 477.188 765.151 475.684 765.743 474.226C766.336 472.722 767.065 471.4 767.931 470.261C768.842 469.122 769.822 468.21 770.87 467.527C771.964 466.843 772.989 466.501 773.946 466.501C774.448 466.501 774.926 466.615 775.382 466.843ZM775.792 470.876C774.972 471.286 774.22 471.719 773.536 472.175C772.898 472.585 772.328 473.087 771.827 473.679C771.371 474.271 771.007 475.001 770.733 475.866C770.505 476.732 770.392 477.803 770.392 479.079C770.392 480.219 770.574 481.153 770.938 481.882C771.349 482.611 771.85 483.204 772.442 483.659C773.08 484.07 773.764 484.366 774.493 484.548C775.268 484.685 776.02 484.753 776.749 484.753C778.298 484.753 779.597 484.138 780.645 482.907C781.694 481.677 782.218 480.173 782.218 478.396C782.218 477.029 782.013 475.912 781.602 475.046C781.238 474.18 780.737 473.497 780.099 472.995C779.506 472.448 778.823 472.038 778.048 471.765C777.273 471.446 776.521 471.15 775.792 470.876ZM793.839 473.542C793.383 472.904 793.155 472.016 793.155 470.876C793.155 469.6 793.383 468.415 793.839 467.322C794.295 466.182 794.955 465.202 795.821 464.382C796.687 463.562 797.758 462.924 799.034 462.468C800.31 461.967 801.791 461.716 803.477 461.716C804.526 461.716 805.619 461.876 806.759 462.195C807.898 462.468 808.923 462.833 809.835 463.288C810.792 463.744 811.567 464.268 812.159 464.861C812.752 465.407 813.048 465.954 813.048 466.501C813.048 467.276 812.752 467.891 812.159 468.347C811.567 468.803 811.02 469.031 810.518 469.031C810.336 469.031 810.108 468.985 809.835 468.894C808.285 468.119 806.918 467.572 805.733 467.253C804.548 466.934 803.5 466.775 802.589 466.775C801.13 466.775 800.037 467.185 799.308 468.005C798.624 468.78 798.282 469.76 798.282 470.945C798.282 472.038 798.67 472.881 799.444 473.474C800.219 474.021 801.176 474.499 802.315 474.909C803.5 475.274 804.776 475.639 806.143 476.003C807.511 476.322 808.764 476.801 809.903 477.439C811.088 478.077 812.068 478.92 812.843 479.968C813.617 480.971 814.005 482.361 814.005 484.138C814.005 486.553 813.116 488.331 811.339 489.47C809.607 490.655 807.237 491.247 804.229 491.247C802.999 491.247 801.723 491.179 800.401 491.042C799.08 490.906 797.872 490.678 796.778 490.359C795.73 490.085 794.864 489.698 794.181 489.197C793.497 488.695 793.155 488.057 793.155 487.282C793.155 486.69 793.315 486.143 793.634 485.642C793.998 485.095 794.477 484.822 795.069 484.822C795.16 484.822 795.229 484.844 795.274 484.89C795.32 484.89 795.388 484.89 795.479 484.89C797.074 485.619 798.578 486.12 799.991 486.394C801.404 486.622 802.634 486.736 803.683 486.736C805.733 486.736 807.169 486.485 807.989 485.984C808.809 485.482 809.22 484.776 809.22 483.865C809.22 483.135 808.923 482.52 808.331 482.019C807.784 481.472 807.078 481.039 806.212 480.72C805.392 480.355 804.48 480.036 803.477 479.763C802.52 479.49 801.632 479.216 800.811 478.943C799.535 478.532 798.282 477.94 797.052 477.165C795.867 476.391 794.796 475.183 793.839 473.542Z" fill="black"/>
<path fill-rule="evenodd" clip-rule="evenodd" d="M366.144 235.229C362.203 159.42 297.619 101.164 221.89 105.11C146.163 109.056 87.9685 173.71 91.91 249.518C95.8516 325.326 160.436 383.582 236.165 379.637C311.892 375.69 370.086 311.037 366.144 235.229ZM333.956 236.503C330.927 178.257 281.305 133.496 223.121 136.528C164.937 139.56 120.225 189.235 123.253 247.481C126.281 305.726 175.904 350.486 234.087 347.454C292.272 344.423 336.984 294.748 333.956 236.503Z" fill="#3ABAFF"/>
<path d="M137.388 188.658L114.255 166.468C82.1587 215.569 84.8119 280.442 121.486 326.809L143.441 303.873C118.716 270.024 116.548 224.588 137.388 188.658Z" fill="#CA22FF"/>
<path d="M228.665 136.542L236.748 105.409C181.586 102.222 129.529 132.832 105.447 182.616L136.546 190.708C155.101 157.362 190.534 136.526 228.665 136.542Z" fill="#FF383F"/>
<path d="M218.359 105.165L228.551 137.06C263.117 136.794 295.867 153.687 315.712 182.021L347.572 171.819C320.858 126.84 270.454 100.84 218.359 105.165Z" fill="#43FF33"/>
<path d="M357.188 291.987C375.084 246 366.802 193.503 335.619 155.275L316.213 181.99C334.201 208.335 339.339 241.689 330.08 272.253L357.188 291.987Z" fill="#FFDE2E"/>
<path fill-rule="evenodd" clip-rule="evenodd" d="M379.651 359.758C376.374 369.118 379.466 379.892 387.923 385.968C398.202 393.354 412.516 390.999 419.893 380.708C427.272 370.418 424.919 356.089 414.639 348.702C406.183 342.627 394.996 343.143 387.186 349.247L385.667 348.156C391.341 329.633 368.788 301.283 355.793 291.947C355.117 293.634 354.465 295.357 353.797 297.119C348.467 311.201 342.212 327.726 315.717 347.845C329.228 356.368 360.176 370.131 377.777 358.412L379.651 359.758Z" fill="#820282"/>
<path d="M397.356 277.259C397.356 271.157 397.356 265.684 397.356 260.838C397.535 255.813 397.625 251.058 397.625 246.571C397.803 241.905 397.894 237.15 397.894 232.304C398.073 227.28 398.252 221.627 398.431 215.346C398.431 211.756 399.686 209.154 402.196 207.539C404.884 205.745 407.663 204.848 410.531 204.848C412.683 204.848 414.566 205.655 416.178 207.27C417.971 208.705 418.868 210.86 418.868 213.731C418.868 220.011 418.777 225.755 418.599 230.959C418.599 235.983 418.509 241.008 418.329 246.033C418.151 250.878 417.971 255.813 417.792 260.838C417.792 265.863 417.792 271.426 417.792 277.528C417.792 280.758 418.329 283.54 419.405 285.872C420.66 288.205 422.184 290.18 423.976 291.794C425.949 293.409 428.011 294.576 430.162 295.293C432.313 296.011 434.375 296.371 436.346 296.371C440.111 296.371 444.324 294.935 448.985 292.064C453.824 289.013 457.948 285.154 461.354 280.489C460.995 273.848 460.726 267.837 460.547 262.453C460.368 256.891 460.278 251.776 460.278 247.11C460.278 242.265 460.278 237.239 460.278 232.035C460.278 226.831 460.637 222.165 461.354 218.038C462.071 213.731 463.325 210.231 465.118 207.539C466.911 204.848 469.689 203.501 473.454 203.501C475.784 203.861 477.935 204.848 479.908 206.463C481.88 207.898 482.865 209.962 482.865 212.654C482.328 219.115 481.79 226.113 481.252 233.65C480.714 241.008 480.445 248.905 480.445 257.338C480.445 261.646 480.535 266.222 480.714 271.068C480.894 275.733 481.252 280.489 481.79 285.334C482.507 287.129 483.582 289.282 485.016 291.794C486.63 294.307 488.154 296.819 489.588 299.331C491.202 301.844 492.546 304.266 493.622 306.599C494.697 308.753 495.235 310.458 495.235 311.714C495.235 314.585 494.07 317.008 491.739 318.982C489.409 320.956 486.899 321.943 484.21 321.943C482.597 321.943 480.894 321.225 479.101 319.789C477.487 318.534 475.964 316.918 474.53 314.945C473.096 312.97 471.751 310.906 470.496 308.753C469.42 306.779 468.614 304.984 468.077 303.37C463.415 307.317 458.037 310.548 451.942 313.06C445.847 315.572 439.483 316.829 432.85 316.829C427.114 316.829 422.005 315.663 417.523 313.329C413.221 310.996 409.545 307.946 406.498 304.177C403.45 300.408 401.121 296.191 399.507 291.525C398.073 286.68 397.356 281.925 397.356 277.259ZM602.795 232.574C608.352 240.29 611.13 247.02 611.13 252.762C611.13 258.864 607.993 262.902 601.719 264.875L545.519 281.565C547.85 285.154 550.807 287.936 554.393 289.911C558.158 291.884 561.922 292.871 565.687 292.871C571.603 292.871 577.159 291.974 582.358 290.18C587.736 288.205 592.755 284.796 597.416 279.95C598.671 278.694 600.106 278.066 601.719 278.066C603.871 278.066 606.022 279.143 608.173 281.296C610.503 283.27 611.669 285.514 611.669 288.026C611.669 290.538 610.413 293.14 607.904 295.833C605.573 298.524 602.436 301.126 598.493 303.639C594.548 305.972 590.067 307.856 585.048 309.292C580.027 310.906 574.919 311.714 569.72 311.714C564.522 311.714 558.964 310.906 553.048 309.292C547.312 307.677 541.934 305.164 536.915 301.755C531.895 298.165 527.772 293.589 524.545 288.026C521.318 282.463 519.705 275.643 519.705 267.568C519.705 258.953 522.483 249.084 528.041 237.957C531.626 230.959 537.093 225.844 544.443 222.613C551.972 219.204 559.861 217.5 568.107 217.5C574.919 217.5 581.372 218.756 587.467 221.268C593.742 223.78 598.851 227.549 602.795 232.574ZM540.948 263.53L589.887 249.263C588.991 244.597 586.571 241.188 582.627 239.034C578.862 236.701 574.65 235.535 569.989 235.535C564.79 235.535 560.309 236.521 556.544 238.496C552.959 240.29 550.001 242.623 547.67 245.494C545.34 248.365 543.637 251.416 542.561 254.647C541.486 257.877 540.948 260.838 540.948 263.53ZM636.676 249.802C634.883 247.289 633.987 243.79 633.987 239.303C633.987 234.279 634.883 229.613 636.676 225.306C638.468 220.82 641.068 216.961 644.474 213.731C647.88 210.5 652.093 207.988 657.112 206.194C662.132 204.219 667.957 203.232 674.591 203.232C678.714 203.232 683.016 203.861 687.498 205.117C691.979 206.194 696.013 207.629 699.599 209.423C703.363 211.218 706.41 213.282 708.74 215.615C711.071 217.769 712.236 219.922 712.236 222.075C712.236 225.126 711.071 227.549 708.74 229.344C706.41 231.138 704.259 232.035 702.287 232.035C701.57 232.035 700.674 231.856 699.599 231.497C693.504 228.446 688.125 226.293 683.464 225.037C678.803 223.78 674.68 223.153 671.095 223.153C665.358 223.153 661.056 224.767 658.188 227.997C655.499 231.048 654.155 234.906 654.155 239.572C654.155 243.879 655.678 247.2 658.725 249.532C661.773 251.686 665.538 253.571 670.019 255.185C674.68 256.62 679.7 258.057 685.078 259.493C690.456 260.748 695.386 262.633 699.867 265.146C704.529 267.657 708.383 270.977 711.43 275.105C714.478 279.052 716.001 284.527 716.001 291.525C716.001 301.037 712.505 308.035 705.514 312.521C698.702 317.187 689.38 319.52 677.548 319.52C672.709 319.52 667.689 319.251 662.49 318.713C657.291 318.174 652.541 317.277 648.239 316.021C644.115 314.945 640.71 313.419 638.02 311.445C635.331 309.47 633.987 306.959 633.987 303.908C633.987 301.575 634.614 299.422 635.869 297.447C637.303 295.293 639.185 294.217 641.516 294.217C641.875 294.217 642.144 294.307 642.323 294.486C642.502 294.486 642.771 294.486 643.129 294.486C649.404 297.357 655.32 299.331 660.876 300.408C666.434 301.306 671.274 301.755 675.397 301.755C683.464 301.755 689.111 300.768 692.338 298.793C695.564 296.819 697.178 294.038 697.178 290.449C697.178 287.578 696.013 285.154 693.682 283.181C691.531 281.027 688.753 279.323 685.347 278.066C682.119 276.63 678.534 275.374 674.591 274.297C670.827 273.221 667.331 272.144 664.104 271.068C659.084 269.452 654.155 267.119 649.314 264.068C644.654 261.017 640.441 256.262 636.676 249.802ZM756.067 277.259C756.247 273.67 756.336 270.17 756.336 266.76C756.336 263.351 756.426 260.031 756.604 256.8L757.412 237.957H748.538C746.029 237.957 743.787 237.957 741.816 237.957C740.023 237.778 738.409 237.419 736.975 236.881C735.541 236.163 734.465 235.086 733.748 233.65C733.031 232.215 732.673 230.151 732.673 227.459C732.673 225.306 733.121 223.422 734.018 221.806C735.093 220.011 736.706 219.115 738.857 219.115C741.009 219.115 743.698 219.204 746.924 219.384C750.331 219.563 754.095 219.563 758.218 219.384C758.218 209.514 758.039 199.733 757.681 190.042C757.322 180.352 757.143 170.034 757.143 159.086C757.143 156.035 758.218 153.882 760.369 152.626C762.52 151.19 764.851 150.473 767.361 150.473C771.125 150.473 773.814 151.908 775.428 154.779C777.041 157.471 778.117 160.791 778.655 164.739C779.192 168.687 779.283 172.814 778.923 177.122C778.744 181.249 778.655 184.659 778.655 187.351C778.655 198.657 778.386 209.245 777.849 219.115C786.453 219.115 794.61 219.025 802.317 218.845C810.206 218.486 816.301 218.038 820.603 217.5C822.754 217.858 824.277 219.025 825.174 220.999C826.25 222.793 826.787 224.767 826.787 226.921C826.787 229.972 826.07 232.215 824.636 233.65C823.382 235.086 820.872 236.163 817.107 236.881C813.522 237.599 808.503 237.957 802.049 237.957C795.775 237.957 787.529 237.957 777.31 237.957C776.952 243.879 776.683 249.981 776.504 256.262C776.504 262.543 776.504 269.183 776.504 276.181C776.504 283.18 777.758 288.564 780.268 292.333C782.777 295.922 786.004 297.717 789.949 297.717C794.251 297.717 798.105 296.191 801.511 293.14C804.917 289.911 808.233 285.693 811.46 280.489C812.536 278.694 814.328 277.797 816.838 277.797C819.349 277.797 821.589 278.694 823.56 280.489C825.713 282.283 826.787 284.436 826.787 286.949C826.787 290.538 825.533 294.127 823.023 297.717C820.513 301.126 817.287 304.266 813.343 307.137C809.398 310.01 805.007 312.343 800.166 314.137C795.327 315.932 790.666 316.829 786.184 316.829C780.626 316.829 775.876 315.663 771.932 313.329C768.167 310.996 765.121 307.946 762.79 304.177C760.459 300.408 758.757 296.191 757.681 291.525C756.605 286.68 756.067 281.925 756.067 277.259Z" fill="black"/>
</svg>
